<?xml version="1.0" standalone="no"?>
<!DOCTYPE svg PUBLIC "-//W3C//DTD SVG 20010904//EN"
 "http://www.w3.org/TR/2001/REC-SVG-20010904/DTD/svg10.dtd">
<svg version="1.0" xmlns="http://www.w3.org/2000/svg"
 width="960.000000pt" height="960.000000pt" viewBox="0 0 960.000000 960.000000"
 preserveAspectRatio="xMidYMid meet">
<metadata>
Created by potrace 1.14, written by Peter Selinger 2001-2017
</metadata>
<g transform="translate(0.000000,960.000000) scale(0.100000,-0.100000)"
fill="#000000" stroke="none">
<path d="M5040 9120 c0 -5 7 -10 15 -10 8 0 15 5 15 10 0 6 -7 10 -15 10 -8 0
-15 -4 -15 -10z"/>
<path d="M4828 9025 c-16 -18 -28 -35 -28 -37 0 -2 47 -5 105 -6 101 -3 145 6
145 29 0 6 -5 7 -10 4 -6 -3 -13 1 -16 10 -4 9 -12 14 -20 11 -7 -3 -15 0 -17
7 -3 9 -8 8 -20 -2 -13 -10 -17 -10 -17 -1 0 9 -9 11 -30 7 -16 -4 -32 -2 -35
3 -11 17 -29 9 -57 -25z"/>
<path d="M4478 9019 c-21 -11 -38 -20 -38 -22 0 -9 185 3 188 12 3 10 -30 16
-70 12 -10 -1 -18 3 -18 8 0 16 -20 13 -62 -10z"/>
<path d="M4521 8904 c-77 -85 -79 -96 -12 -73 18 6 35 9 38 6 3 -3 -17 -37
-45 -75 -28 -39 -48 -73 -45 -76 3 -3 18 -3 32 0 27 6 202 92 281 138 26 15
61 26 83 26 34 0 47 -9 133 -92 98 -96 113 -108 128 -108 5 0 6 44 3 104 l-7
103 39 7 c21 3 49 15 63 26 23 18 32 19 82 9 31 -5 86 -21 122 -35 35 -13 67
-24 71 -24 3 0 -14 16 -38 35 -24 19 -50 33 -56 30 -7 -2 -28 2 -47 10 -20 8
-51 15 -70 15 -23 0 -38 6 -45 17 -9 17 -11 16 -33 -5 -14 -12 -32 -22 -41
-22 -9 0 -18 -4 -22 -9 -3 -6 -27 -13 -53 -17 -26 -4 -39 -10 -29 -12 9 -2 17
-4 17 -5 0 -1 4 -28 10 -60 14 -89 -7 -114 -53 -61 -12 15 -40 43 -61 63 -22
20 -48 44 -58 54 -35 33 -88 22 -224 -47 -136 -69 -163 -69 -105 1 17 21 31
41 31 45 0 8 -24 5 -72 -9 -23 -6 -24 20 -3 37 18 15 59 70 52 70 -3 0 -33
-30 -66 -66z"/>
<path d="M4435 8608 c-22 -5 -52 -13 -67 -18 -16 -5 -30 -4 -33 1 -3 4 -16 4
-30 -1 -14 -5 -31 -7 -38 -4 -19 7 -101 -13 -105 -26 -3 -8 -8 -7 -18 1 -11 9
-19 6 -39 -15 -13 -14 -32 -26 -42 -26 -10 0 -28 -3 -40 -6 -18 -5 -21 -3 -16
16 5 20 3 21 -33 14 -22 -4 -48 -13 -59 -19 -11 -7 -45 -16 -75 -19 -66 -8
-120 -34 -120 -58 0 -9 -4 -19 -9 -22 -5 -4 -7 2 -4 13 5 20 -12 38 -22 22 -3
-6 -12 -8 -19 -5 -7 3 -16 -2 -19 -10 -4 -9 -15 -16 -24 -16 -10 0 -28 -6 -39
-14 -12 -8 -33 -17 -49 -19 -15 -2 -33 -11 -40 -20 -6 -9 -15 -14 -19 -10 -4
4 -10 3 -14 -3 -4 -6 -23 -20 -43 -30 -20 -11 -65 -45 -99 -77 l-63 -59 -5
-66 c-3 -55 0 -78 20 -127 31 -75 123 -216 177 -272 l42 -42 10 -117 c8 -79
20 -144 40 -202 34 -100 34 -102 13 -102 -13 0 -12 -5 6 -29 11 -17 30 -33 41
-36 20 -7 20 -12 15 -118 -4 -62 -9 -141 -12 -177 -5 -77 11 -210 29 -227 9
-10 12 21 14 145 1 159 24 377 41 394 6 6 18 -23 31 -74 34 -130 51 -178 87
-249 75 -151 225 -218 463 -207 l106 5 -80 -23 c-44 -12 -88 -23 -98 -23 -10
-1 -20 -8 -23 -16 -4 -10 -13 -13 -26 -9 -13 4 -18 2 -14 -4 3 -6 0 -13 -6
-15 -7 -3 -3 -6 9 -6 25 -1 42 -21 18 -21 -9 0 -14 -4 -10 -9 3 -6 23 -9 43
-8 42 1 102 -33 102 -59 0 -11 7 -13 28 -8 15 4 29 11 30 16 3 7 66 38 79 38
2 0 1 -5 -2 -10 -4 -6 1 -23 11 -38 10 -15 18 -29 17 -32 0 -3 13 -10 28 -17
31 -13 40 -36 12 -31 -10 2 -19 -4 -21 -14 -2 -11 3 -18 11 -18 8 0 17 -10 20
-22 19 -80 52 -128 76 -113 6 3 13 -1 18 -9 27 -48 266 -56 304 -10 6 8 15 11
21 8 5 -3 22 8 39 25 23 24 35 30 54 25 17 -4 25 -2 26 7 0 8 3 23 6 34 3 11
7 36 9 55 2 19 6 44 9 55 5 17 -1 22 -34 32 -40 13 -71 9 -71 -8 0 -5 -11 -9
-24 -9 -13 0 -29 -7 -36 -15 -7 -8 -15 -13 -19 -10 -4 2 -29 -3 -56 -11 -73
-22 -129 -6 -221 63 -26 19 -38 22 -78 17 -59 -8 -66 0 -66 77 0 55 21 99 63
132 8 7 23 37 32 67 10 30 30 75 45 100 15 25 37 72 49 105 61 163 77 185 130
185 37 0 81 -31 81 -57 0 -6 4 -13 8 -15 5 -1 26 -46 46 -98 21 -52 49 -116
62 -142 13 -26 33 -72 44 -102 12 -30 28 -60 36 -67 30 -25 46 -72 45 -131 -1
-58 0 -58 22 -44 12 8 33 13 47 12 38 -4 90 -18 95 -26 2 -4 22 9 44 30 32 30
38 42 34 65 -7 33 -49 61 -107 70 -22 3 -57 15 -76 25 -42 23 -36 26 13 5 51
-21 208 -30 297 -16 217 34 294 126 391 470 12 45 24 70 28 62 5 -7 18 -10 34
-6 24 6 26 4 36 -49 27 -140 31 -166 35 -239 2 -43 7 -81 10 -84 6 -6 7 -2 11
77 6 107 16 237 21 258 3 17 11 22 34 22 16 0 32 5 35 10 3 6 15 10 26 10 11
0 19 7 19 16 0 14 -3 14 -15 4 -27 -23 -35 1 -20 60 7 30 16 97 20 148 l7 94
46 46 c45 47 139 168 160 207 5 11 15 49 22 84 11 61 10 65 -19 126 -26 53
-42 71 -98 111 -38 26 -69 52 -71 56 -2 4 -9 8 -17 8 -7 0 -19 7 -26 17 -8 9
-27 22 -44 30 -16 7 -43 22 -60 33 -38 23 -45 24 -45 4 0 -13 -6 -15 -27 -10
-31 7 -66 43 -60 60 4 12 -45 46 -66 46 -6 0 2 -11 18 -24 l30 -24 -50 17
c-45 16 -76 29 -180 75 -59 26 -81 34 -150 55 -158 48 -209 61 -236 61 -16 0
-29 5 -29 11 0 7 12 8 33 4 25 -6 29 -4 21 5 -7 7 -38 16 -70 20 -33 4 -88 13
-123 19 -35 7 -76 9 -92 6 -15 -3 -30 -2 -33 3 -6 10 -109 21 -211 23 -33 1
-64 5 -70 9 -5 4 -33 5 -60 1 -52 -7 -105 -6 -140 2 -11 3 -38 1 -60 -5z m220
-28 c3 -6 -1 -7 -9 -4 -18 7 -21 14 -7 14 6 0 13 -4 16 -10z m-118 -6 c-3 -3
-12 -4 -19 -1 -8 3 -5 6 6 6 11 1 17 -2 13 -5z m-332 -24 c-3 -5 -11 -10 -16
-10 -6 0 -7 5 -4 10 3 6 11 10 16 10 6 0 7 -4 4 -10z m960 -10 c18 -8 17 -9
-7 -9 -15 -1 -30 4 -33 9 -7 12 12 12 40 0z m52 -16 c-3 -3 -12 -4 -19 -1 -8
3 -5 6 6 6 11 1 17 -2 13 -5z m-1277 -24 c0 -5 -5 -10 -11 -10 -5 0 -7 5 -4
10 3 6 8 10 11 10 2 0 4 -4 4 -10z m-50 -10 c13 -8 13 -10 -2 -10 -9 0 -20 5
-23 10 -8 13 5 13 25 0z m2178 -285 c23 -10 42 -21 42 -26 0 -5 5 -9 11 -9 6
0 23 -9 37 -21 110 -84 131 -99 142 -99 10 0 10 -3 1 -14 -10 -11 -8 -16 6
-20 18 -6 43 -67 43 -104 0 -27 -31 -112 -40 -112 -5 0 -11 -8 -13 -17 -3 -10
-4 3 -2 30 4 46 3 48 -36 67 -31 16 -39 26 -39 48 0 32 -29 81 -30 50 0 -10
-4 -18 -9 -18 -12 0 -23 29 -15 41 3 5 0 17 -5 26 -10 17 -10 17 -11 1 0 -10
-4 -18 -10 -18 -5 0 -10 13 -10 29 0 19 -10 40 -29 58 -16 16 -31 38 -33 49
-2 10 -10 18 -16 16 -7 -1 -17 9 -22 22 -5 13 -14 27 -20 31 -5 3 -7 11 -4 17
4 7 9 7 13 0 3 -6 25 -18 49 -27z m-1059 -472 c19 -13 28 -14 42 -5 12 8 26 9
43 2 16 -6 27 -6 31 0 3 5 27 7 53 4 76 -9 92 -14 92 -28 0 -8 6 -17 13 -19 6
-3 2 -6 -10 -6 -13 -1 -23 4 -23 9 0 15 -37 12 -53 -4 -8 -8 -34 -14 -61 -14
-26 0 -53 -5 -60 -11 -7 -6 -16 -8 -19 -5 -5 6 -16 -1 -52 -34 -8 -7 -18 -25
-22 -40 -3 -15 -15 -33 -25 -40 -10 -7 -18 -20 -18 -28 0 -8 -4 -14 -10 -14
-5 0 -10 -9 -10 -21 0 -11 -12 -33 -27 -48 -29 -28 -32 -38 -21 -56 4 -7 -29
-10 -97 -10 -81 0 -101 3 -93 13 8 8 7 12 -3 12 -14 0 -39 43 -39 67 0 7 -9
13 -20 13 -11 0 -20 6 -20 13 0 23 -25 67 -38 67 -7 0 -11 4 -7 9 3 6 -3 14
-12 20 -10 5 -15 13 -11 17 9 8 -9 44 -22 44 -6 0 -10 -9 -10 -21 0 -30 -24
-18 -28 14 -3 27 -16 35 -27 17 -8 -12 -45 10 -45 27 0 16 -32 17 -47 2 -7 -7
-12 -3 -15 16 -6 31 5 40 25 21 9 -9 19 -11 28 -5 8 5 25 9 40 9 14 0 30 5 37
12 7 7 16 8 24 2 7 -6 33 -10 58 -9 25 0 48 -4 51 -9 4 -5 12 -5 19 -1 7 4 43
9 79 11 67 3 271 20 281 22 3 1 16 -5 29 -15z m-694 -24 c10 -14 1 -21 -19
-13 -9 3 -13 10 -10 15 7 12 21 11 29 -2z m-70 -19 c-3 -5 -13 -10 -21 -10 -8
0 -12 5 -9 10 3 6 13 10 21 10 8 0 12 -4 9 -10z m-468 -256 c-3 -3 -12 -4 -19
-1 -8 3 -5 6 6 6 11 1 17 -2 13 -5z m-161 -98 c-2 -6 -8 0 -14 14 -5 14 -7 29
-4 34 7 12 24 -33 18 -48z m64 23 c0 -11 -4 -17 -10 -14 -5 3 -10 13 -10 21 0
8 5 14 10 14 6 0 10 -9 10 -21z m62 6 c0 -5 -5 -11 -11 -13 -6 -2 -11 4 -11
13 0 9 5 15 11 13 6 -2 11 -8 11 -13z m2113 -45 c-5 -8 -11 -8 -17 -2 -6 6 -7
16 -3 22 5 8 11 8 17 2 6 -6 7 -16 3 -22z m65 5 c0 -8 -7 -15 -15 -15 -8 0
-15 7 -15 15 0 8 7 15 15 15 8 0 15 -7 15 -15z m87 -31 c-3 -3 -12 -4 -19 -1
-8 3 -5 6 6 6 11 1 17 -2 13 -5z m-237 -249 c-46 -235 -192 -345 -441 -333
-78 4 -105 10 -159 35 -82 38 -129 87 -141 145 -5 23 -13 60 -18 81 -10 42 -5
49 9 12 10 -27 72 -59 108 -56 12 1 22 -3 22 -9 0 -6 4 -9 9 -6 4 3 27 -3 49
-14 23 -11 50 -20 61 -20 10 0 21 -6 24 -12 3 -10 9 -10 26 0 11 6 31 12 44
12 13 0 32 7 43 15 10 8 27 15 37 15 9 0 17 5 17 10 0 17 18 11 23 -7 3 -16 5
-16 12 2 12 30 44 58 69 59 11 1 20 7 19 14 -2 7 5 12 15 12 11 0 27 9 37 20
10 11 24 20 32 20 7 0 13 5 13 10 0 6 12 16 28 22 32 14 57 38 58 56 3 38 8
43 11 12 3 -19 -1 -62 -7 -95z m-1951 30 l0 -20 -9 20 c-5 11 -9 27 -9 35 -1
13 0 13 9 0 5 -8 9 -24 9 -35z m28 -36 c6 -6 9 -18 6 -27 -5 -12 0 -14 25 -10
18 3 32 0 32 -6 0 -17 44 -76 58 -76 6 0 22 -12 35 -27 53 -64 53 -63 87 -47
18 9 41 13 58 9 21 -4 38 1 66 20 28 19 46 24 73 21 22 -3 51 2 77 14 22 10
61 18 85 18 24 0 46 4 50 9 8 14 51 23 51 12 0 -45 -73 -140 -129 -168 -83
-42 -230 -53 -349 -26 -134 31 -206 107 -256 273 -8 24 11 31 31 11z m709 -56
c-10 -10 -19 5 -10 18 6 11 8 11 12 0 2 -7 1 -15 -2 -18z m528 -199 c4 -10 1
-14 -6 -12 -15 5 -23 28 -10 28 5 0 13 -7 16 -16z"/>
<path d="M4041 8551 c-7 -5 -9 -11 -4 -14 13 -8 53 3 53 14 0 11 -31 11 -49 0z"/>
<path d="M5330 8520 c0 -5 9 -10 20 -10 11 0 20 5 20 10 0 6 -9 10 -20 10 -11
0 -20 -4 -20 -10z"/>
<path d="M5405 8497 c22 -15 65 -28 65 -20 0 13 -37 32 -60 33 -24 0 -24 0 -5
-13z"/>
<path d="M5495 8473 c14 -13 85 -36 92 -29 6 6 -31 22 -75 32 -17 4 -23 3 -17
-3z"/>
<path d="M5634 8425 c11 -8 27 -15 35 -15 10 1 7 6 -9 15 -33 19 -50 18 -26 0z"/>
<path d="M5730 8395 c0 -3 19 -14 42 -26 31 -16 39 -17 30 -6 -12 14 -72 41
-72 32z"/>
<path d="M3550 7070 c11 -22 27 -40 35 -40 19 0 19 10 -2 40 -37 54 -60 54
-33 0z"/>
<path d="M6146 7091 c-19 -21 -12 -45 18 -71 9 -7 16 -21 16 -31 0 -11 4 -19
9 -19 13 0 36 104 28 124 -9 22 -50 20 -71 -3z"/>
<path d="M5999 6795 c-4 -5 -9 -48 -12 -95 -4 -47 -4 -78 -1 -70 3 8 10 24 15
35 11 22 8 147 -2 130z"/>
<path d="M3640 6631 c0 -11 5 -23 10 -26 6 -3 10 3 10 14 0 11 -4 23 -10 26
-5 3 -10 -3 -10 -14z"/>
<path d="M3650 6571 c0 -25 6 -27 13 -6 4 8 2 17 -3 20 -6 4 -10 -3 -10 -14z"/>
<path d="M4421 6314 c0 -11 3 -14 6 -6 3 7 2 16 -1 19 -3 4 -6 -2 -5 -13z"/>
<path d="M5160 6284 c0 -11 11 -30 25 -42 34 -30 35 -83 1 -101 -43 -23 -332
-19 -521 8 -54 7 -82 6 -129 -6 -61 -15 -128 -12 -153 9 -7 6 -13 21 -13 34 0
13 -4 24 -10 24 -5 0 -10 -4 -10 -10 0 -13 -27 -13 -35 0 -3 5 3 18 15 30 l20
20 -29 0 c-24 0 -30 -5 -34 -30 -4 -16 -11 -30 -17 -30 -14 0 -13 43 2 58 9 9
9 12 0 12 -23 0 -45 -92 -28 -119 5 -8 4 -16 -5 -21 -18 -12 -29 -3 -22 17 4
11 2 14 -8 11 -8 -3 -13 -17 -13 -37 1 -17 -2 -31 -7 -31 -5 0 -9 5 -9 10 0 6
-4 10 -9 10 -10 0 -7 -73 4 -91 4 -6 17 -8 30 -5 20 5 22 2 20 -39 -1 -50 5
-57 20 -23 6 13 22 25 37 28 15 3 37 13 47 22 22 18 18 19 146 -32 61 -24 223
-60 272 -60 107 0 313 46 313 70 0 17 -30 18 -61 3 -25 -12 -36 -13 -50 -4
-15 9 -19 8 -19 -3 0 -18 -31 -24 -153 -31 -106 -5 -137 3 -137 36 0 19 -1 19
-16 5 -23 -23 -51 -20 -69 8 -15 22 -15 27 -1 54 22 43 42 47 63 12 l17 -29
13 29 c15 36 39 39 100 9 39 -19 46 -20 61 -6 9 8 36 18 59 22 36 6 43 4 53
-15 l12 -22 22 21 c27 26 52 27 65 4 9 -17 11 -16 30 1 12 11 27 16 37 12 14
-5 15 -15 10 -56 -4 -28 -4 -50 -1 -50 3 0 24 9 48 19 103 47 108 47 150 7 21
-20 44 -36 52 -36 13 0 26 47 31 115 1 26 -4 47 -17 63 -10 14 -19 36 -19 49
0 22 -47 79 -57 69 -3 -2 -14 5 -25 16 -14 14 -28 18 -48 15 -15 -3 -32 -1
-39 6 -8 8 -11 6 -11 -9z m-970 -224 c0 -5 -5 -10 -11 -10 -5 0 -7 5 -4 10 3
6 8 10 11 10 2 0 4 -4 4 -10z m327 -46 c13 -27 10 -44 -8 -44 -12 0 -28 41
-22 58 8 19 17 14 30 -14z"/>
<path d="M4356 6281 c-4 -7 -5 -15 -2 -18 9 -9 19 4 14 18 -4 11 -6 11 -12 0z"/>
<path d="M3732 6248 c-18 -18 -15 -28 8 -28 21 0 25 7 12 27 -6 10 -11 10 -20
1z"/>
<path d="M3980 6251 c0 -6 5 -13 10 -16 6 -3 10 1 10 9 0 9 -4 16 -10 16 -5 0
-10 -4 -10 -9z"/>
<path d="M3735 6190 c-3 -5 -1 -10 4 -10 6 0 11 5 11 10 0 6 -2 10 -4 10 -3 0
-8 -4 -11 -10z"/>
<path d="M3730 6101 c0 -5 5 -13 10 -16 6 -3 10 -2 10 4 0 5 -4 13 -10 16 -5
3 -10 2 -10 -4z"/>
<path d="M3760 6051 c-16 -31 -12 -37 10 -13 22 23 25 32 10 32 -5 0 -14 -9
-20 -19z"/>
<path d="M3783 6012 c-19 -3 -23 -10 -23 -43 0 -39 25 -87 118 -228 19 -30 48
-81 64 -113 l28 -58 -21 -77 c-26 -94 -40 -117 -82 -134 -18 -7 -75 -36 -128
-65 -53 -30 -121 -59 -150 -65 -47 -10 -126 -42 -264 -109 -64 -31 -122 -42
-180 -35 -49 7 -59 4 -122 -30 -37 -20 -75 -43 -83 -50 -8 -7 -49 -31 -90 -52
-41 -22 -97 -54 -123 -71 -27 -17 -78 -42 -115 -57 -36 -15 -89 -41 -116 -60
-28 -18 -68 -42 -88 -54 -133 -74 -166 -95 -242 -154 -57 -45 -166 -162 -166
-179 0 -4 -8 -27 -19 -51 -20 -47 -59 -141 -71 -172 -5 -11 -21 -49 -38 -85
-62 -134 -142 -403 -142 -476 0 -10 -13 -62 -30 -114 -24 -75 -30 -113 -30
-182 0 -102 -18 -177 -70 -303 -13 -31 -23 -99 -40 -270 -26 -270 -50 -357
-123 -455 -58 -78 -75 -135 -51 -168 11 -16 14 -16 31 0 10 9 36 21 58 27 103
28 569 0 905 -55 52 -8 136 -20 185 -25 217 -23 411 -70 463 -111 7 -6 12 -33
11 -67 -1 -45 -2 -50 -8 -26 -9 38 -29 75 -40 75 -4 0 3 -37 16 -83 24 -80 24
-83 8 -157 -9 -41 -22 -95 -30 -120 -13 -40 -20 -72 -40 -170 -11 -54 13 7 30
75 9 39 31 99 48 135 18 36 32 73 32 84 0 26 12 30 155 62 69 15 175 38 235
51 61 13 123 22 138 19 16 -3 40 0 55 8 31 15 185 4 208 -15 8 -6 14 -8 14 -3
0 5 4 4 8 -2 9 -14 94 -57 145 -73 29 -10 37 -18 37 -37 0 -41 -24 -40 -111 2
-3 2 -3 -11 -1 -28 5 -30 23 -43 92 -63 24 -7 24 -7 5 8 -11 9 -18 17 -15 19
3 2 14 8 25 14 11 6 20 20 21 30 2 40 26 74 53 74 30 -1 141 -27 126 -30 -16
-3 -77 0 -117 6 -38 6 -38 5 -38 -28 0 -45 15 -58 70 -58 40 0 51 5 80 35 19
19 37 35 42 35 15 0 -14 -55 -39 -76 -22 -17 -24 -24 -15 -41 6 -11 9 -23 6
-25 -7 -8 65 -40 79 -35 7 2 -7 14 -30 26 -29 14 -43 28 -43 41 0 25 2 25 87
-4 39 -13 74 -22 77 -19 6 7 67 19 156 32 36 6 96 15 133 21 38 5 79 7 93 4
23 -6 24 -7 7 -21 -16 -13 -16 -13 6 -2 24 11 63 9 149 -9 23 -5 42 -6 42 -3
0 14 -229 171 -358 244 -75 43 -183 106 -239 138 l-102 60 -31 -16 c-51 -26
-140 -84 -197 -127 -59 -45 -65 -46 -225 -35 -133 10 -134 11 -117 101 15 79
49 199 61 213 7 8 -7 6 -35 -6 -89 -38 -150 -51 -330 -67 l-181 -16 -23 26
c-52 61 -79 271 -49 386 8 30 22 90 31 134 21 93 39 116 95 116 l41 0 -41 39
c-69 66 -51 76 155 87 156 8 254 -9 409 -71 67 -27 121 -44 126 -39 4 5 22 43
40 84 18 41 38 89 45 105 8 17 46 109 85 205 39 96 81 200 94 230 12 30 28 55
35 55 8 0 37 -81 78 -220 36 -121 84 -281 108 -355 l44 -135 53 -8 c79 -13
664 -1 716 13 23 7 46 10 49 6 4 -3 -12 -26 -35 -49 -23 -24 -42 -46 -42 -50
0 -3 25 3 56 15 66 25 53 38 127 -121 27 -58 76 -147 109 -198 33 -51 58 -99
55 -106 -3 -7 -40 -21 -83 -31 -44 -10 -112 -31 -152 -46 l-72 -28 -12 21 c-6
12 -12 23 -13 25 -2 2 -27 -10 -56 -27 -30 -16 -84 -37 -121 -47 -61 -15 -69
-20 -85 -53 l-18 -36 -106 -9 -106 -8 33 -68 c21 -43 47 -79 70 -97 109 -83
143 -126 159 -203 9 -40 19 -50 57 -50 37 0 58 -10 58 -26 0 -8 5 -14 10 -14
6 0 10 7 10 15 0 11 11 15 39 15 64 0 131 -12 131 -24 0 -6 21 -11 53 -12 37
-1 45 1 27 6 -24 8 -24 8 5 10 110 5 184 14 280 31 61 11 151 24 200 30 259
29 278 34 260 81 -4 9 1 22 9 31 9 9 16 24 16 34 0 29 35 192 43 199 4 4 7 14
7 23 1 18 71 163 90 186 13 16 7 45 -10 45 -5 0 -10 -10 -10 -22 0 -17 -3 -19
-12 -10 -10 10 -7 17 10 35 21 20 24 20 35 6 11 -15 16 -14 45 10 17 15 32 32
32 38 0 6 7 16 15 23 8 7 15 24 15 39 l0 26 -20 -32 c-14 -23 -27 -33 -45 -33
-27 0 -34 15 -10 24 22 8 19 53 -4 66 -28 14 -33 13 -26 -9 11 -34 -5 -71 -30
-71 -17 0 -26 -9 -36 -32 l-12 -33 -7 42 c-7 46 -34 83 -59 83 -14 -1 -13 -2
2 -11 26 -15 21 -32 -8 -27 -31 6 -40 -5 -19 -23 21 -17 64 -85 64 -100 0 -14
-41 -48 -59 -49 -9 0 -11 7 -7 23 4 17 -4 39 -27 73 -31 48 -32 48 -35 22 -4
-33 -22 -36 -40 -7 -12 18 -11 24 7 43 12 13 41 33 66 45 56 28 58 32 40 67
-8 16 -15 49 -15 73 l0 44 -40 -59 c-84 -124 -99 -141 -142 -159 -24 -10 -51
-25 -60 -33 -16 -14 -252 -46 -274 -38 -6 2 -14 26 -18 53 -7 50 -51 403 -61
485 -5 42 -3 48 22 65 53 36 88 46 185 51 l97 5 10 -40 c35 -128 73 -412 67
-488 l-6 -60 21 44 c39 82 35 341 -7 480 -21 72 -15 75 180 80 198 4 192 8
182 -130 -4 -54 -3 -90 3 -94 11 -6 83 81 111 135 28 55 39 61 88 48 23 -6 42
-15 42 -20 0 -24 -85 -220 -104 -241 -19 -20 -21 -35 -21 -132 0 -110 0 -110
25 -112 22 -3 35 12 100 109 46 69 87 120 107 131 88 51 481 138 552 122 42
-9 46 -20 19 -57 l-22 -32 48 27 c42 23 60 27 135 27 47 0 111 7 141 15 79 21
194 21 226 1 37 -25 64 -75 64 -121 0 -41 0 -41 58 -60 81 -27 181 -78 238
-120 69 -52 143 -125 161 -158 8 -16 17 -27 20 -24 8 9 -17 189 -32 228 -7 19
-20 77 -29 128 -9 51 -26 116 -38 144 -13 30 -22 68 -20 92 1 22 -1 64 -4 93
-6 53 -6 53 -57 76 -35 16 -58 20 -69 15 -9 -5 -42 -9 -73 -9 -57 0 -57 0 -51
26 4 15 26 53 49 86 35 50 42 68 44 111 0 29 2 55 2 59 1 3 19 25 41 48 31 32
40 50 40 75 0 54 -41 83 -142 100 -40 6 -78 44 -78 76 0 16 3 17 33 5 20 -8
61 -11 113 -8 l82 4 -4 67 c-5 93 -10 109 -74 271 -32 80 -82 217 -111 305
-29 88 -65 179 -81 202 -19 28 -61 62 -133 108 -58 37 -105 71 -105 75 0 4
-44 30 -97 56 -55 28 -115 68 -141 92 -48 47 -95 72 -139 72 -15 0 -73 23
-128 51 -55 28 -129 59 -165 68 -36 10 -99 33 -140 51 -144 63 -298 118 -432
154 -131 35 -179 54 -278 111 -99 57 -147 81 -175 89 -18 5 -20 2 -17 -43 3
-40 -4 -65 -43 -152 -138 -303 -374 -532 -644 -624 -190 -64 -523 -57 -710 15
-144 56 -279 154 -340 245 -70 107 -76 127 -68 238 3 31 1 59 -3 62 -4 3 -8
27 -8 53 0 27 -3 59 -7 71 -6 20 -4 22 14 16 17 -5 20 -3 15 12 -4 10 -12 23
-19 28 -17 14 -30 75 -16 75 6 0 12 -4 12 -10 1 -5 2 -15 3 -22 0 -7 11 -17
24 -24 28 -14 41 -27 23 -22 -7 2 -15 -2 -18 -8 -5 -16 38 -26 54 -12 9 7 13
7 13 -1 0 -6 -4 -11 -10 -11 -5 0 -10 -9 -10 -20 0 -13 7 -20 20 -20 11 0 20
-6 20 -14 0 -15 21 -26 50 -26 9 0 23 -7 30 -15 7 -8 21 -15 31 -15 11 0 19
-7 19 -15 0 -18 -27 -20 -33 -2 -2 6 -8 9 -12 5 -4 -4 -3 -14 4 -22 7 -9 8
-15 2 -18 -17 -5 1 -22 54 -52 116 -66 195 -126 166 -126 -6 0 -11 5 -11 10 0
7 -6 7 -20 0 -27 -14 -25 -30 6 -55 24 -19 25 -24 14 -44 -16 -30 1 -48 67
-71 26 -9 48 -23 49 -31 0 -8 2 -24 2 -36 1 -13 9 -23 17 -23 9 0 15 -9 15
-23 0 -17 9 -26 33 -35 18 -7 40 -12 49 -12 9 0 18 -7 22 -15 3 -9 16 -20 28
-25 l23 -9 -23 0 c-34 -1 -16 -21 19 -21 19 0 37 9 51 25 15 18 25 22 34 14 8
-7 14 -7 19 1 3 5 15 10 26 10 10 0 18 5 17 12 -2 7 3 13 10 14 6 1 16 2 20 3
4 0 8 10 8 22 0 16 -5 19 -25 14 -21 -5 -23 -4 -12 9 11 13 9 16 -13 22 -34 8
-34 34 -1 34 14 0 25 4 25 8 0 5 20 23 45 40 48 34 52 58 8 47 -25 -6 -25 -5
6 25 17 17 31 36 31 41 0 5 7 9 16 9 8 0 12 5 8 11 -3 6 0 15 7 21 9 6 -4 7
-36 3 -46 -4 -47 -4 -20 6 46 18 198 99 218 116 9 9 17 29 17 44 0 32 18 48
32 28 7 -11 8 -11 6 1 -4 20 42 111 65 128 9 7 17 20 17 28 0 8 6 14 14 14 20
0 31 21 16 30 -8 5 -2 10 15 14 19 5 25 10 18 17 -7 7 -1 21 18 42 16 17 29
39 29 49 0 9 6 21 14 25 7 4 22 22 32 38 36 57 88 125 95 125 11 0 80 105 93
143 7 18 22 51 34 75 l23 43 -27 -5 c-30 -6 -64 -33 -64 -52 0 -7 -5 -25 -12
-39 -9 -20 -18 -25 -37 -23 -21 2 -29 -4 -46 -36 -11 -21 -30 -50 -42 -64 -13
-14 -23 -31 -23 -38 0 -15 -16 -19 -23 -6 -2 4 -2 1 -1 -5 2 -7 -1 -13 -6 -13
-5 0 -7 -6 -4 -13 3 -8 -2 -20 -11 -27 -10 -8 -15 -9 -15 -1 0 6 -4 11 -10 11
-15 0 -12 -30 3 -31 6 0 2 -4 -10 -9 -13 -5 -23 -13 -23 -18 0 -5 -14 -12 -31
-16 -17 -3 -44 -19 -59 -36 -17 -18 -30 -25 -32 -18 -3 7 -9 8 -17 3 -11 -6
-10 -10 3 -17 22 -12 20 -31 -4 -46 -11 -7 -20 -18 -20 -25 0 -16 -43 -59 -56
-56 -20 5 -64 -22 -65 -38 0 -11 -3 -13 -6 -5 -9 22 -32 13 -39 -15 l-7 -27
-9 25 c-8 22 -10 22 -19 7 -6 -10 -17 -18 -24 -18 -8 0 -15 -3 -15 -8 0 -7
-64 -30 -110 -39 -13 -2 -28 -10 -32 -16 -4 -7 -8 -7 -8 -2 0 6 -24 11 -52 12
-117 6 -138 8 -138 16 0 4 -8 7 -17 5 -10 -2 -18 3 -18 12 0 9 -11 16 -27 18
-16 2 -28 7 -28 11 0 5 -13 7 -30 5 -20 -2 -38 4 -58 21 -35 29 -42 31 -42 10
0 -8 -5 -15 -11 -15 -6 0 -9 9 -6 20 4 15 0 20 -14 20 -10 0 -19 7 -19 15 0 8
-4 15 -9 15 -16 0 -22 -32 -9 -49 7 -9 1 -6 -14 7 -17 15 -24 30 -21 43 3 11
0 19 -7 19 -8 0 -10 9 -6 28 4 17 3 22 -2 14 -17 -25 -47 -9 -50 26 -3 27 -7
32 -23 27 -25 -8 -24 3 4 26 22 18 22 18 1 19 -15 0 -26 12 -39 44 -13 30 -26
47 -42 51 -13 3 -23 10 -23 16 0 8 -5 8 -15 -1 -11 -9 -18 -9 -33 2 -11 7 -21
18 -23 23 -2 6 -11 9 -20 8 -11 -2 -23 13 -35 40 -10 23 -28 53 -41 66 -13 13
-23 32 -23 42 0 11 -4 19 -10 19 -5 0 -10 -5 -10 -12 0 -24 -19 7 -22 37 -2
22 -8 30 -23 30 -11 0 -21 8 -23 17 -3 17 -28 31 -42 23 -4 -2 -7 7 -7 21 0
31 -11 43 -23 24 -6 -9 -10 -10 -10 -3 0 6 -9 15 -20 18 -11 3 -20 13 -20 21
0 19 17 18 29 -3 5 -10 13 -14 18 -9 4 5 2 11 -4 13 -7 3 -13 12 -13 21 0 26
-13 38 -37 34z m401 -487 c2 -7 -2 -16 -10 -19 -8 -3 -14 -1 -14 3 0 5 -3 17
-6 25 -4 12 -2 15 9 10 9 -3 18 -12 21 -19z m-126 -120 c0 -44 6 -120 12 -170
13 -115 13 -142 0 -129 -15 15 -31 148 -35 294 -3 112 -2 130 9 110 6 -14 13
-61 14 -105z m29 -362 c-3 -10 -5 -4 -5 12 0 17 2 24 5 18 2 -7 2 -21 0 -30z
m1173 3 c0 -3 -4 -8 -10 -11 -5 -3 -10 -1 -10 4 0 6 5 11 10 11 6 0 10 -2 10
-4z m-713 -252 c-3 -3 -12 -4 -19 -1 -8 3 -5 6 6 6 11 1 17 -2 13 -5z m293
-254 c0 -5 -4 -10 -10 -10 -5 0 -10 5 -10 10 0 6 5 10 10 10 6 0 10 -4 10 -10z
m1223 -2305 c31 -22 97 -86 97 -95 0 -10 -58 -60 -71 -60 -5 0 -9 14 -9 31 0
33 -16 36 -34 5 -8 -14 -8 -20 2 -23 6 -3 12 -12 12 -21 0 -20 -36 -46 -50
-37 -6 4 -10 -1 -10 -9 0 -15 -117 -59 -132 -49 -5 2 -1 17 7 33 18 35 20 113
3 140 -13 20 -5 36 20 42 17 4 42 -65 42 -120 0 -52 23 -54 28 -4 4 37 18 42
26 10 2 -13 2 9 -1 47 -3 39 -10 79 -15 89 -8 15 -6 22 8 33 19 14 46 9 77
-12z m-219 -103 c12 -42 2 -50 -33 -29 -36 21 -70 22 -78 2 -8 -23 7 -33 18
-12 19 33 39 20 39 -27 0 -46 -22 -80 -34 -51 -9 24 -26 18 -26 -10 0 -14 5
-25 11 -25 17 0 53 22 67 42 18 25 42 23 42 -5 0 -43 -21 -57 -112 -74 -48 -9
-90 -14 -93 -11 -3 3 0 38 6 77 10 58 10 76 -1 97 -19 34 -7 42 75 53 100 13
108 11 119 -27z m-224 -11 c0 -11 -4 -22 -9 -26 -5 -3 -24 -46 -42 -95 -25
-72 -36 -91 -55 -96 -33 -8 -39 -2 -63 68 -12 35 -26 71 -31 80 -18 33 -11 45
34 58 55 15 69 8 54 -25 -8 -18 -8 -32 2 -56 l14 -32 12 37 c8 20 11 50 8 66
-6 30 -5 30 64 39 6 0 12 -8 12 -18z m-225 -61 c9 -39 0 -53 -25 -40 -17 9
-20 6 -25 -27 -4 -21 -8 -44 -10 -50 -5 -15 -25 -17 -25 -3 0 6 -4 10 -10 10
-5 0 -10 -11 -10 -25 0 -34 17 -31 56 10 38 40 54 44 53 13 -1 -55 -24 -69
-155 -102 l-26 -7 4 98 4 98 74 26 c41 15 78 27 82 28 3 0 9 -12 13 -29z m779
-25 c-9 -14 -19 -23 -22 -20 -3 2 -11 0 -19 -7 -11 -9 -12 -7 -7 8 12 33 16
37 25 23 6 -10 11 -5 20 16 6 17 13 25 16 18 2 -6 -3 -23 -13 -38z m-988 -9
c5 -13 -9 -45 -39 -89 -10 -16 -7 -23 27 -53 43 -37 41 -50 -10 -60 -26 -5
-35 -1 -63 31 -18 20 -34 35 -36 33 -10 -10 9 -48 27 -54 10 -3 17 -11 15 -17
-4 -14 -79 -39 -87 -30 -16 18 -30 121 -22 163 7 43 10 46 62 67 63 26 118 30
126 9z m784 -92 c0 -8 -4 -12 -10 -9 -5 3 -10 10 -10 16 0 5 5 9 10 9 6 0 10
-7 10 -16z m-80 -45 c-7 -11 -14 -18 -17 -15 -3 3 0 12 7 21 18 21 23 19 10
-6z m-166 -44 c4 -12 0 -14 -19 -9 -33 8 -55 -11 -55 -48 0 -36 22 -45 58 -24
l27 17 -24 -20 c-62 -55 -126 15 -66 74 27 28 70 33 79 10z m-311 -60 c5 -11
0 -13 -24 -8 -24 4 -28 3 -23 -10 3 -9 12 -13 21 -10 13 5 15 1 9 -20 -7 -29
11 -47 26 -26 7 11 8 9 6 -6 -2 -12 -12 -21 -26 -23 -17 -3 -22 2 -22 20 0 13
-9 34 -20 48 -24 31 -25 37 -2 43 34 9 50 7 55 -8z m-193 -30 c7 -8 10 -21 7
-30 -4 -8 4 -22 19 -34 36 -28 10 -39 -28 -11 -33 25 -45 21 -29 -9 8 -14 8
-22 0 -26 -15 -10 -20 -3 -39 56 -17 50 -17 51 4 59 32 13 52 12 66 -5z
m-1005 -80 c0 -11 -59 -19 -82 -11 -8 3 -11 11 -8 16 8 14 90 9 90 -5z m235 5
c0 -6 11 -8 25 -4 14 3 37 3 53 -1 l27 -7 -35 -18 c-45 -25 -77 -25 -90 -1
-14 27 -13 41 5 41 8 0 15 -5 15 -10z m-462 -28 c2 -7 -3 -12 -12 -12 -9 0
-16 7 -16 16 0 17 22 14 28 -4z"/>
<path d="M6026 2175 c4 -8 8 -15 10 -15 2 0 4 7 4 15 0 8 -4 15 -10 15 -5 0
-7 -7 -4 -15z"/>
<path d="M5300 2015 c-7 -8 -8 -15 -2 -15 5 0 15 7 22 15 7 8 8 15 2 15 -5 0
-15 -7 -22 -15z"/>
<path d="M5076 1978 c-20 -28 -3 -39 22 -14 12 11 13 19 5 27 -8 8 -15 4 -27
-13z"/>
<path d="M5165 1750 c-9 -15 7 -41 24 -38 24 5 25 35 1 41 -11 3 -22 1 -25 -3z"/>
<path d="M5822 5948 c-15 -15 -16 -38 -2 -38 12 0 23 25 18 40 -2 7 -7 7 -16
-2z"/>
<path d="M5335 5920 c3 -5 8 -10 11 -10 2 0 4 5 4 10 0 6 -5 10 -11 10 -5 0
-7 -4 -4 -10z"/>
<path d="M5773 5883 c8 -9 20 -12 26 -9 19 12 12 24 -15 24 -23 0 -24 -2 -11
-15z"/>
<path d="M4091 5682 c-9 -3 -2 -10 19 -18 25 -11 31 -19 27 -34 -6 -23 11 -39
38 -38 11 0 27 -2 36 -6 14 -6 15 -3 5 29 -9 29 -13 33 -22 20 -18 -24 -26
-17 -19 16 7 31 6 32 -22 26 -17 -3 -34 -2 -39 2 -5 5 -15 6 -23 3z"/>
<path d="M4791 5613 c-1 -27 -16 -30 -30 -5 -10 16 -10 16 -11 0 0 -10 -8 -18
-17 -18 -17 -1 -17 -1 0 -14 9 -7 17 -18 17 -25 0 -11 10 -13 65 -14 27 -1 30
3 33 36 2 21 -1 37 -7 37 -6 0 -11 -9 -11 -20 0 -31 -18 -23 -29 13 -7 25 -9
27 -10 10z"/>
<path d="M4124 5204 c3 -9 6 -18 6 -20 0 -2 6 -4 14 -4 9 0 12 7 9 20 -3 11
-12 20 -20 20 -10 0 -13 -6 -9 -16z"/>
<path d="M4170 5160 c0 -5 5 -10 10 -10 6 0 10 5 10 10 0 6 -4 10 -10 10 -5 0
-10 -4 -10 -10z"/>
<path d="M4110 4962 c0 -11 4 -23 9 -27 6 -3 8 4 6 16 -6 30 -15 37 -15 11z"/>
<path d="M4150 4856 c0 -2 7 -7 16 -10 8 -3 12 -2 9 4 -6 10 -25 14 -25 6z"/>
<path d="M4950 4540 c0 -5 5 -10 10 -10 6 0 10 5 10 10 0 6 -4 10 -10 10 -5 0
-10 -4 -10 -10z"/>
<path d="M8081 3304 c-25 -31 -24 -25 -10 -117 11 -72 29 -120 50 -132 6 -4 4
6 -4 21 -26 53 -29 92 -7 114 21 21 27 55 11 64 -5 3 -12 -4 -16 -17 -6 -19
-8 -19 -12 -4 -2 9 1 33 7 53 15 45 8 52 -19 18z"/>
<path d="M3478 2773 c23 -2 59 -2 80 0 20 2 1 4 -43 4 -44 0 -61 -2 -37 -4z"/>
<path d="M3358 2763 c12 -2 32 -2 45 0 12 2 2 4 -23 4 -25 0 -35 -2 -22 -4z"/>
<path d="M3628 2763 c7 -3 16 -2 19 1 4 3 -2 6 -13 5 -11 0 -14 -3 -6 -6z"/>
<path d="M3946 2658 c6 -21 31 -47 45 -48 24 -1 49 -147 49 -281 0 -104 -7
-119 -52 -119 -24 0 -28 -4 -28 -29 0 -33 17 -41 97 -41 29 0 86 -7 128 -17
41 -9 77 -14 80 -12 12 12 -10 49 -35 59 -16 7 -32 19 -35 28 -13 32 -33 126
-29 134 10 16 46 -11 104 -82 151 -182 141 -173 216 -194 38 -10 77 -21 87
-24 31 -8 17 40 -15 56 -28 13 -87 79 -152 169 -34 48 -36 54 -19 59 93 30
123 63 123 135 0 54 -10 80 -44 117 -39 44 -69 51 -243 63 -114 7 -185 17
-223 30 -67 23 -63 24 -54 -3z m353 -118 c22 -11 51 -59 51 -84 0 -8 -11 -28
-24 -43 -22 -26 -30 -28 -91 -27 -36 1 -67 3 -69 5 -2 2 -6 37 -9 76 -7 92 1
103 72 92 27 -4 59 -13 70 -19z"/>
<path d="M3400 2551 l-65 -6 3 -70 c1 -38 5 -91 8 -117 l6 -48 61 6 c71 7 142
37 162 68 20 32 27 79 16 109 -20 51 -75 68 -191 58z"/>
<path d="M3943 2440 c0 -25 2 -35 4 -22 2 12 2 32 0 45 -2 12 -4 2 -4 -23z"/>
<path d="M7675 2435 c-23 -10 -25 -14 -10 -14 21 -1 52 15 45 23 -3 2 -18 -2
-35 -9z"/>
<path d="M5141 2378 c-32 -74 -34 -88 -16 -88 25 0 85 28 85 40 0 14 -39 90
-46 90 -2 0 -13 -19 -23 -42z"/>
<path d="M7535 2394 c-79 -28 -103 -44 -63 -44 29 0 102 29 133 54 27 21 13
19 -70 -10z"/>
<path d="M6275 2370 c10 -11 20 -18 23 -15 7 6 -18 35 -31 35 -5 0 -2 -9 8
-20z"/>
<path d="M3931 2363 c-1 -6 -4 -20 -7 -30 -5 -17 -5 -17 6 0 6 10 9 23 6 30
-3 9 -5 9 -5 0z"/>
<path d="M4752 2285 c-55 -37 -59 -48 -39 -102 l12 -31 42 84 c23 46 40 84 39
84 0 0 -25 -16 -54 -35z"/>
<path d="M7248 2267 c-97 -36 -123 -53 -63 -42 50 8 131 43 146 61 14 17 20
19 -83 -19z"/>
<path d="M4686 2083 c-19 -39 -24 -59 -17 -66 8 -8 11 -4 11 11 0 13 9 41 21
63 11 23 19 43 17 45 -2 2 -16 -22 -32 -53z"/>
<path d="M7595 2045 c-49 -12 -111 -39 -272 -116 -45 -22 -100 -46 -122 -54
-21 -7 -47 -20 -57 -29 -11 -9 -28 -23 -39 -31 -47 -36 46 0 220 85 179 88
276 130 305 130 8 1 29 7 45 15 l30 13 -30 0 c-16 0 -52 -6 -80 -13z"/>
<path d="M7765 1859 c-4 -12 -23 -39 -44 -62 l-36 -40 32 16 c37 20 73 62 73
88 0 26 -17 24 -25 -2z"/>
<path d="M3654 1803 c2 -14 11 -17 40 -15 54 5 164 -43 172 -75 4 -16 11 -22
21 -19 8 3 19 6 24 6 45 0 -64 64 -169 99 -75 26 -91 26 -88 4z"/>
<path d="M3606 1699 c-28 -33 -32 -59 -14 -88 9 -14 8 -23 -5 -42 -10 -13 -17
-35 -16 -49 0 -21 3 -18 17 17 14 37 20 42 61 51 39 8 41 10 15 11 -35 1 -64
28 -64 58 0 12 14 33 31 47 19 16 25 26 16 26 -9 0 -27 -14 -41 -31z"/>
<path d="M2786 1641 c-17 -19 -17 -20 5 -23 15 -2 25 -12 29 -27 5 -22 6 -22
20 -6 12 15 12 20 0 43 -20 33 -33 37 -54 13z"/>
<path d="M6170 1609 c0 -5 5 -7 10 -4 6 3 10 8 10 11 0 2 -4 4 -10 4 -5 0 -10
-5 -10 -11z"/>
<path d="M6400 1609 c0 -5 5 -7 10 -4 6 3 10 8 10 11 0 2 -4 4 -10 4 -5 0 -10
-5 -10 -11z"/>
<path d="M4660 1597 c-16 -4 -30 -9 -30 -12 0 -7 105 7 114 16 11 10 -39 8
-84 -4z"/>
<path d="M6650 1589 c0 -5 5 -7 10 -4 6 3 10 8 10 11 0 2 -4 4 -10 4 -5 0 -10
-5 -10 -11z"/>
<path d="M6390 1575 c0 -8 2 -15 4 -15 2 0 6 7 10 15 3 8 1 15 -4 15 -6 0 -10
-7 -10 -15z"/>
<path d="M6330 1555 c-7 -9 -8 -15 -2 -15 5 0 12 7 16 15 3 8 4 15 2 15 -2 0
-9 -7 -16 -15z"/>
<path d="M4485 1540 l-40 -20 40 6 c40 5 86 34 55 34 -8 0 -33 -9 -55 -20z"/>
<path d="M5640 1550 c0 -5 5 -10 10 -10 6 0 10 5 10 10 0 6 -4 10 -10 10 -5 0
-10 -4 -10 -10z"/>
<path d="M5464 1524 c3 -9 6 -18 6 -20 0 -2 8 -4 18 -3 10 0 12 3 5 6 -7 2
-13 11 -13 19 0 8 -5 14 -11 14 -6 0 -8 -7 -5 -16z"/>
<path d="M6502 1520 c0 -14 2 -19 5 -12 2 6 2 18 0 25 -3 6 -5 1 -5 -13z"/>
<path d="M4337 1519 c7 -7 15 -10 18 -7 3 3 -2 9 -12 12 -14 6 -15 5 -6 -5z"/>
<path d="M5156 1522 c-4 -7 -3 -19 2 -28 12 -21 22 -5 12 20 -4 13 -9 16 -14
8z"/>
<path d="M4385 1510 c-3 -5 -2 -10 4 -10 5 0 13 5 16 10 3 6 2 10 -4 10 -5 0
-13 -4 -16 -10z"/>
<path d="M5214 1494 c3 -9 6 -20 6 -25 0 -5 3 -9 8 -9 4 0 7 11 7 25 0 14 -6
25 -14 25 -8 0 -11 -6 -7 -16z"/>
<path d="M7112 1490 c0 -14 2 -19 5 -12 2 6 2 18 0 25 -3 6 -5 1 -5 -13z"/>
<path d="M4171 1491 c-7 -5 -15 -21 -16 -35 -2 -15 1 -24 7 -20 5 3 7 9 4 12
-11 10 26 41 42 35 10 -4 13 -2 8 5 -8 14 -26 15 -45 3z"/>
<path d="M5275 1490 c3 -5 10 -10 16 -10 5 0 9 5 9 10 0 6 -7 10 -16 10 -8 0
-12 -4 -9 -10z"/>
<path d="M6294 1491 c4 -6 12 -11 18 -11 5 0 23 -11 40 -25 16 -14 35 -25 41
-25 7 0 3 6 -8 12 -11 6 -27 19 -35 28 -18 20 -66 38 -56 21z"/>
<path d="M4947 1435 c9 -19 20 -35 24 -35 9 0 -24 69 -33 70 -4 0 0 -16 9 -35z"/>
<path d="M6292 1459 c2 -7 10 -15 17 -17 8 -3 12 1 9 9 -2 7 -10 15 -17 17 -8
3 -12 -1 -9 -9z"/>
<path d="M5065 1443 c11 -3 26 -10 33 -16 15 -12 27 -3 17 12 -3 6 -21 10 -38
10 -21 -1 -25 -3 -12 -6z"/>
<path d="M6153 1443 c9 -2 23 -2 30 0 6 3 -1 5 -18 5 -16 0 -22 -2 -12 -5z"/>
<path d="M4221 1414 c0 -11 3 -14 6 -6 3 7 2 16 -1 19 -3 4 -6 -2 -5 -13z"/>
<path d="M4651 1396 c-1 -26 -10 -51 -27 -73 -14 -18 -20 -33 -15 -33 6 0 22
21 37 46 17 28 32 43 40 40 8 -3 14 -1 14 4 0 6 -6 10 -13 10 -8 0 -19 10 -25
23 -10 20 -11 18 -11 -17z"/>
<path d="M4038 1392 c-13 -6 -14 -10 -4 -23 10 -15 13 -14 23 7 12 25 9 27
-19 16z"/>
<path d="M5110 1386 c0 -8 4 -17 9 -20 5 -4 7 3 4 14 -6 23 -13 26 -13 6z"/>
<path d="M4487 1343 c-10 -9 -9 -53 1 -53 5 0 9 14 10 30 1 32 -1 34 -11 23z"/>
<path d="M5125 1340 c3 -5 10 -10 16 -10 5 0 9 5 9 10 0 6 -7 10 -16 10 -8 0
-12 -4 -9 -10z"/>
<path d="M4818 1263 c7 -3 16 -2 19 1 4 3 -2 6 -13 5 -11 0 -14 -3 -6 -6z"/>
<path d="M4994 1245 c-9 -37 0 -40 13 -5 6 17 7 30 2 30 -5 0 -11 -11 -15 -25z"/>
<path d="M3446 1185 c-3 -9 -6 -26 -5 -38 1 -14 4 -9 9 13 9 37 7 52 -4 25z"/>
<path d="M2705 1180 c3 -5 16 -15 28 -21 22 -12 22 -12 3 10 -19 21 -43 30
-31 11z"/>
<path d="M2840 1092 c0 -22 19 -42 40 -42 12 1 12 2 -2 11 -10 5 -18 19 -18
29 0 11 -4 20 -10 20 -5 0 -10 -8 -10 -18z"/>
<path d="M3395 1000 c3 -5 8 -10 11 -10 2 0 4 5 4 10 0 6 -5 10 -11 10 -5 0
-7 -4 -4 -10z"/>
<path d="M4627 866 c-4 -10 -7 -25 -6 -34 0 -11 4 -9 10 7 5 13 8 29 6 35 -2
5 -6 2 -10 -8z"/>
<path d="M3650 820 l0 -41 -37 7 c-21 4 -48 11 -61 15 -30 11 -45 11 -38 0 3
-5 21 -12 40 -15 18 -4 69 -22 113 -41 44 -19 105 -41 134 -49 31 -7 54 -19
54 -27 0 -7 16 -17 35 -21 41 -10 80 -28 98 -45 7 -7 19 -10 26 -7 8 3 23 -8
36 -25 12 -17 25 -29 30 -26 4 3 21 -2 36 -10 16 -8 39 -15 50 -15 12 0 32 -9
45 -19 35 -27 269 -55 269 -32 0 5 -15 15 -32 22 -18 7 -50 29 -71 48 -27 25
-41 31 -46 23 -4 -7 -15 -10 -23 -7 -9 4 -19 2 -22 -4 -6 -10 -15 -9 -53 6
-10 3 -22 7 -28 8 -28 4 -76 20 -127 43 -64 28 -77 55 -33 72 17 6 25 17 25
32 -1 22 -1 22 -15 4 -15 -19 -15 -19 -29 -1 -12 16 -16 17 -30 6 -9 -7 -16
-21 -16 -30 0 -10 -8 -4 -22 17 -13 17 -32 34 -43 38 -21 6 -90 36 -138 60
-40 20 -44 18 -39 -16 5 -37 -15 -40 -46 -7 -30 31 -29 57 1 50 22 -5 22 -5 2
10 -33 27 -45 21 -45 -23z m177 -55 c23 -14 43 -30 43 -35 0 -6 7 -10 15 -10
8 0 15 -5 15 -11 0 -6 -6 -8 -12 -5 -7 2 -30 10 -50 17 -22 7 -38 19 -39 28 0
10 -3 11 -5 4 -8 -18 -34 -4 -34 18 0 25 15 24 67 -6z"/>
<path d="M3420 840 c8 -5 20 -10 25 -10 6 0 3 5 -5 10 -8 5 -19 10 -25 10 -5
0 -3 -5 5 -10z"/>
<path d="M4587 780 c-3 -11 -1 -20 4 -20 5 0 9 9 9 20 0 11 -2 20 -4 20 -2 0
-6 -9 -9 -20z"/>
<path d="M3935 760 c3 -5 19 -10 35 -10 16 0 32 5 35 10 4 6 -10 10 -35 10
-25 0 -39 -4 -35 -10z"/>
<path d="M4154 689 c-19 -21 -19 -21 1 -35 115 -82 155 -99 127 -54 -7 11 -12
28 -12 37 0 15 -2 15 -9 4 -8 -12 -12 -12 -25 -2 -9 8 -16 20 -16 28 0 7 -8
17 -17 20 -10 4 -21 10 -24 15 -3 5 -14 -1 -25 -13z"/>
<path d="M4490 690 c0 -5 5 -10 11 -10 5 0 7 5 4 10 -3 6 -8 10 -11 10 -2 0
-4 -4 -4 -10z"/>
<path d="M4580 696 c0 -2 7 -7 16 -10 8 -3 12 -2 9 4 -6 10 -25 14 -25 6z"/>
<path d="M4540 650 c14 -12 63 -46 110 -76 47 -31 95 -65 107 -76 13 -12 25
-19 29 -16 6 7 -53 67 -82 84 -10 6 -23 20 -29 30 -5 11 -18 18 -27 16 -10 -2
-30 8 -45 22 -15 14 -33 26 -40 26 -6 0 -20 3 -30 6 -13 4 -11 0 7 -16z"/>
<path d="M4960 600 c0 -5 5 -10 10 -10 6 0 10 5 10 10 0 6 -4 10 -10 10 -5 0
-10 -4 -10 -10z"/>
<path d="M4895 563 c-37 -55 -30 -86 10 -46 14 14 18 14 26 2 7 -10 8 -7 4 11
-3 14 -7 35 -8 48 0 12 -2 22 -4 22 -1 0 -14 -17 -28 -37z"/>
<path d="M4705 580 c3 -5 8 -10 11 -10 2 0 4 5 4 10 0 6 -5 10 -11 10 -5 0 -7
-4 -4 -10z"/>
<path d="M4800 570 c0 -5 5 -10 10 -10 6 0 10 5 10 10 0 6 -4 10 -10 10 -5 0
-10 -4 -10 -10z"/>
<path d="M4971 554 c0 -11 3 -14 6 -6 3 7 2 16 -1 19 -3 4 -6 -2 -5 -13z"/>
<path d="M5068 545 c-3 -14 -1 -25 3 -25 5 0 9 11 9 25 0 14 -2 25 -4 25 -2 0
-6 -11 -8 -25z"/>
<path d="M5070 476 c0 -9 5 -16 10 -16 6 0 10 4 10 9 0 6 -4 13 -10 16 -5 3
-10 -1 -10 -9z"/>
</g>
</svg>
