<?xml version="1.0" standalone="no"?>
<!DOCTYPE svg PUBLIC "-//W3C//DTD SVG 20010904//EN"
 "http://www.w3.org/TR/2001/REC-SVG-20010904/DTD/svg10.dtd">
<svg version="1.0" xmlns="http://www.w3.org/2000/svg"
 width="500.000000pt" height="500.000000pt" viewBox="0 0 500.000000 500.000000"
 preserveAspectRatio="xMidYMid meet">
<metadata>
Created by potrace 1.14, written by Peter Selinger 2001-2017
</metadata>
<g transform="translate(0.000000,500.000000) scale(0.100000,-0.100000)"
fill="#000000" stroke="none">
<path d="M2555 4540 c4 -6 11 -8 16 -5 14 9 11 15 -7 15 -8 0 -12 -5 -9 -10z"/>
<path d="M4245 4510 c-3 -5 -1 -10 4 -10 6 0 11 5 11 10 0 6 -2 10 -4 10 -3 0
-8 -4 -11 -10z"/>
<path d="M4610 4470 c0 -5 5 -10 11 -10 5 0 7 5 4 10 -3 6 -8 10 -11 10 -2 0
-4 -4 -4 -10z"/>
<path d="M2510 4444 c0 -8 5 -12 10 -9 6 3 10 10 10 16 0 5 -4 9 -10 9 -5 0
-10 -7 -10 -16z"/>
<path d="M4865 4420 c-3 -5 -1 -10 4 -10 6 0 11 5 11 10 0 6 -2 10 -4 10 -3 0
-8 -4 -11 -10z"/>
<path d="M2980 4385 c0 -5 5 -17 10 -25 5 -8 10 -10 10 -5 0 6 -5 17 -10 25
-5 8 -10 11 -10 5z"/>
<path d="M3275 4370 c3 -5 8 -10 11 -10 2 0 4 5 4 10 0 6 -5 10 -11 10 -5 0
-7 -4 -4 -10z"/>
<path d="M4945 4370 c3 -5 8 -10 11 -10 2 0 4 5 4 10 0 6 -5 10 -11 10 -5 0
-7 -4 -4 -10z"/>
<path d="M3652 4343 c-6 -2 -10 -9 -7 -13 7 -11 35 -2 35 11 0 10 -8 10 -28 2z"/>
<path d="M4280 4340 c0 -5 7 -10 15 -10 8 0 15 5 15 10 0 6 -7 10 -15 10 -8 0
-15 -4 -15 -10z"/>
<path d="M4435 4340 c3 -5 8 -10 11 -10 2 0 4 5 4 10 0 6 -5 10 -11 10 -5 0
-7 -4 -4 -10z"/>
<path d="M2970 4331 c0 -5 5 -13 10 -16 6 -3 10 -2 10 4 0 5 -4 13 -10 16 -5
3 -10 2 -10 -4z"/>
<path d="M4105 4320 c-3 -6 1 -7 9 -4 18 7 21 14 7 14 -6 0 -13 -4 -16 -10z"/>
<path d="M4145 4310 c-3 -6 1 -7 9 -4 18 7 21 14 7 14 -6 0 -13 -4 -16 -10z"/>
<path d="M4531 4304 c0 -11 3 -14 6 -6 3 7 2 16 -1 19 -3 4 -6 -2 -5 -13z"/>
<path d="M3330 4300 c0 -5 5 -10 11 -10 5 0 7 5 4 10 -3 6 -8 10 -11 10 -2 0
-4 -4 -4 -10z"/>
<path d="M4567 4289 c-9 -6 -17 -17 -17 -24 0 -23 28 -18 35 6 9 26 4 30 -18
18z"/>
<path d="M3210 4281 c0 -6 5 -13 10 -16 6 -3 10 1 10 9 0 9 -4 16 -10 16 -5 0
-10 -4 -10 -9z"/>
<path d="M3900 4280 c0 -5 5 -10 10 -10 6 0 10 5 10 10 0 6 -4 10 -10 10 -5 0
-10 -4 -10 -10z"/>
<path d="M4311 4283 c1 -4 -1 -21 -6 -36 -5 -19 -12 -26 -22 -23 -9 4 -13 0
-11 -12 2 -13 -3 -17 -27 -15 -26 2 -28 0 -14 -10 13 -10 14 -14 3 -25 -7 -6
-11 -20 -9 -31 2 -13 -4 -21 -18 -26 -20 -6 -20 -8 -4 -12 25 -6 18 -44 -10
-59 -15 -7 -19 -14 -12 -21 14 -14 -16 -38 -33 -27 -27 17 -38 12 -38 -17 0
-17 6 -32 15 -36 14 -5 14 -7 0 -23 -9 -10 -24 -32 -33 -49 -9 -17 -37 -52
-61 -77 -25 -25 -50 -55 -56 -67 -10 -21 -30 -25 -64 -16 -8 2 -16 -4 -18 -13
-3 -12 1 -15 17 -11 16 4 12 -3 -16 -31 -20 -20 -42 -36 -50 -36 -8 0 -14 -5
-14 -11 0 -5 5 -7 10 -4 6 3 10 2 10 -3 0 -21 -28 -20 -34 1 -4 18 -7 19 -18
8 -10 -11 -10 -14 0 -18 23 -9 12 -29 -15 -28 -20 0 -28 -5 -28 -17 0 -28 -14
-33 -48 -17 -106 51 -107 52 -107 78 0 18 -3 22 -9 13 -4 -8 -11 -13 -15 -13
-18 3 -20 0 -6 -9 8 -5 10 -10 4 -10 -6 0 -19 10 -30 21 -10 12 -37 30 -59 40
-22 10 -32 19 -22 19 10 0 15 5 12 10 -3 6 -1 10 6 10 18 0 5 10 -20 15 -12 2
-33 0 -47 -5 -17 -7 -23 -7 -19 0 3 6 12 10 19 10 17 0 41 28 32 37 -4 4 -12
1 -17 -7 -9 -13 -10 -12 -5 2 13 41 -31 27 -47 -15 -8 -22 -33 -17 -31 7 1 9
-4 16 -12 16 -8 0 -14 -4 -14 -10 0 -5 -6 -7 -13 -4 -8 3 -13 14 -13 26 1 11
-5 23 -12 25 -7 3 -11 -1 -10 -9 2 -9 -6 -12 -26 -10 -31 3 -48 17 -59 45 -3
9 -13 17 -22 17 -21 0 -19 46 3 56 9 4 22 6 27 5 6 -1 2 6 -8 16 -14 14 -21
15 -36 6 -19 -12 -31 -8 -31 9 0 5 4 7 9 4 5 -3 9 6 9 19 0 14 -5 28 -9 31 -5
3 -7 10 -4 15 4 5 1 9 -4 9 -6 0 -11 -6 -11 -14 0 -7 -7 -19 -15 -26 -12 -10
-15 -10 -15 1 -1 36 -17 43 -59 29 -23 -7 -44 -10 -48 -6 -12 12 16 29 46 28
35 -1 45 10 36 38 -5 16 -10 18 -26 9 -11 -5 -17 -14 -14 -18 3 -5 -2 -12 -11
-15 -14 -5 -15 -1 -10 29 4 21 3 35 -3 35 -6 0 -8 -7 -5 -15 4 -8 1 -15 -5
-15 -7 0 -11 -8 -9 -17 2 -11 -4 -18 -17 -20 -11 -1 -30 -5 -42 -9 -19 -5 -23
-2 -23 14 0 23 -26 37 -36 20 -5 -7 -2 -8 7 -4 8 4 5 0 -5 -8 -15 -12 -22 -13
-27 -4 -4 7 -5 16 -2 22 3 5 1 6 -5 2 -7 -4 -9 -17 -6 -30 5 -22 3 -23 -33
-20 l-38 4 28 -16 c15 -8 32 -12 37 -9 6 3 10 1 10 -4 0 -6 -7 -11 -15 -11
-24 0 -29 -2 -43 -19 -12 -14 -13 -14 -8 3 6 16 4 17 -9 6 -13 -11 -14 -10 -9
5 6 15 5 16 -14 4 -12 -8 -21 -18 -21 -24 3 -30 -2 -55 -11 -50 -5 3 -10 1
-10 -4 0 -6 4 -11 8 -11 15 0 0 -60 -14 -61 -8 -1 -20 -2 -26 -3 -14 -1 -21
-46 -7 -46 4 0 11 9 14 20 6 18 38 30 33 13 -1 -5 1 -25 5 -45 9 -43 33 -60
83 -60 19 0 34 -4 34 -9 0 -15 27 -10 33 5 9 22 45 7 61 -25 10 -20 11 -29 2
-33 -7 -3 -7 -5 2 -5 7 -1 10 -6 6 -13 -5 -7 -1 -9 13 -6 15 4 24 -1 32 -18 6
-15 7 -25 1 -29 -6 -4 -10 -18 -11 -33 0 -24 -1 -25 -9 -7 -8 19 -9 19 -9 1
-1 -20 -1 -20 -15 0 -8 10 -18 16 -22 12 -4 -5 1 -17 11 -28 10 -11 15 -23 12
-27 -4 -3 2 -13 14 -21 11 -8 18 -20 15 -28 -7 -19 18 -18 34 1 8 9 8 15 2 15
-6 0 -9 12 -8 27 2 20 11 30 37 39 19 7 37 13 41 13 13 2 4 -24 -12 -32 -53
-28 -64 -37 -47 -37 21 0 22 -16 2 -27 -10 -6 -11 -13 -5 -23 8 -12 10 -12 10
5 0 15 3 16 12 7 17 -17 38 -15 38 3 0 16 30 17 41 2 8 -11 51 33 46 47 -3 7
-1 19 4 27 7 11 10 9 15 -9 5 -16 10 -20 19 -12 9 7 16 6 25 -5 11 -13 8 -15
-16 -15 -22 0 -33 -8 -46 -31 -14 -23 -23 -29 -38 -24 -12 4 -20 2 -20 -5 0
-6 3 -9 8 -7 4 3 16 -5 27 -16 l20 -20 -24 6 c-22 5 -22 5 -7 -11 9 -9 23 -26
31 -37 l14 -20 0 20 c-1 51 15 75 48 75 21 0 24 4 20 21 -4 14 -2 19 8 16 7
-3 17 -1 22 4 15 15 60 0 66 -21 3 -10 0 -24 -7 -31 -8 -9 -8 -10 1 -5 6 3 14
2 18 -4 3 -6 -5 -11 -19 -11 -38 -2 -44 -3 -52 -11 -4 -5 9 -8 29 -8 24 0 44
7 58 21 22 22 40 21 47 -1 3 -9 -1 -11 -12 -7 -18 7 -20 -1 -6 -23 6 -9 10
-10 10 -3 0 6 9 11 20 10 11 -1 20 -5 20 -9 0 -4 5 -8 11 -8 5 0 7 5 4 10 -10
16 8 11 33 -9 27 -23 27 -26 2 -28 -12 -1 -29 -11 -38 -22 -19 -21 -69 -41
-58 -22 4 6 5 11 2 11 -3 0 -11 -10 -17 -22 -10 -18 -8 -24 7 -35 21 -16 11
-17 -17 -2 -12 6 -18 17 -15 25 6 16 -10 19 -20 3 -4 -8 -9 -7 -15 2 -6 11
-11 11 -21 1 -9 -9 -9 -12 2 -12 9 0 7 -5 -6 -14 -16 -12 -17 -18 -8 -44 9
-23 9 -33 0 -43 -8 -9 -8 -10 3 -4 8 4 17 2 22 -6 7 -11 9 -11 9 -1 0 7 5 10
10 7 6 -3 10 -1 10 4 0 6 7 11 15 11 8 0 15 -7 15 -15 0 -8 -4 -15 -9 -15 -5
0 -13 -10 -16 -21 -5 -14 -10 -17 -14 -10 -5 8 -13 7 -27 -4 -24 -18 -35 -19
-28 -2 6 16 -28 19 -38 4 -10 -16 3 -39 18 -33 8 3 14 1 14 -4 0 -6 -4 -10
-10 -10 -5 0 -10 -10 -11 -22 l0 -23 -16 23 c-8 12 -21 22 -29 22 -18 0 -48
-32 -36 -39 11 -7 2 -74 -9 -69 -3 2 -13 -3 -21 -10 -12 -10 -17 -10 -27 1 -6
8 -8 17 -5 20 4 3 4 13 0 22 -4 12 -10 13 -25 6 -22 -12 -35 -3 -21 14 7 9 2
12 -20 13 -35 1 -40 -20 -10 -45 25 -22 25 -41 0 -72 -16 -18 -27 -22 -52 -19
-25 4 -43 -2 -80 -27 -26 -18 -45 -35 -42 -38 3 -3 -4 -10 -15 -16 l-21 -12
25 -65 c29 -78 29 -74 11 -74 -8 0 -17 -4 -20 -9 -3 -5 2 -8 12 -7 17 1 19 -6
7 -35 -4 -10 0 -19 10 -23 23 -8 38 3 30 22 -4 12 1 10 17 -5 23 -21 68 -28
68 -10 0 5 7 7 15 3 8 -3 15 0 15 7 0 17 45 57 64 57 9 0 16 4 16 9 0 6 24 2
54 -9 30 -10 57 -16 60 -13 3 4 6 -1 6 -11 0 -9 -4 -15 -9 -12 -20 13 -22 -29
-2 -45 11 -9 17 -19 14 -23 -3 -3 -12 -1 -20 5 -10 9 -13 8 -13 -4 0 -17 21
-17 41 0 8 6 22 7 34 2 11 -4 14 -8 8 -8 -15 -1 -17 -27 -3 -36 9 -6 13 0 26
44 4 11 8 9 20 -7 8 -12 19 -20 24 -17 5 3 19 1 31 -6 17 -9 20 -8 17 3 -3 7
-9 13 -14 13 -5 0 -18 9 -30 21 -16 16 -18 23 -8 32 18 17 25 15 17 -4 -5 -15
-4 -15 20 1 14 9 27 24 29 33 3 13 5 12 10 -5 4 -17 2 -23 -9 -23 -12 0 -13
-3 -5 -13 6 -7 15 -32 20 -55 9 -36 8 -42 -7 -42 -14 -1 -14 -2 -1 -10 13 -7
16 -34 18 -134 2 -85 0 -126 -8 -126 -5 0 -19 -14 -29 -31 -20 -32 -22 -123
-6 -238 5 -38 4 -52 -4 -47 -6 4 -11 3 -11 -3 0 -5 5 -11 12 -13 15 -5 16 -21
18 -198 1 -135 -9 -381 -16 -388 -1 -2 -31 26 -66 64 -112 119 -253 258 -292
288 l-39 29 22 18 c18 15 26 16 41 7 25 -16 40 0 18 16 -17 12 -17 14 2 31 39
36 57 137 36 209 -35 119 -156 182 -372 192 -155 7 -156 7 -188 -26 -29 -29
-30 -32 -28 -116 2 -48 5 -91 8 -96 3 -4 3 -8 1 -8 -3 0 -17 19 -31 43 -44 73
-125 146 -188 170 -12 4 -18 17 -18 39 0 31 -20 73 -44 91 -15 11 -188 -1
-242 -18 -25 -7 -76 -38 -115 -70 -51 -42 -89 -63 -135 -77 -62 -18 -104 -48
-104 -74 0 -7 4 -24 10 -39 9 -23 4 -35 -47 -103 -63 -84 -96 -166 -81 -195 6
-12 5 -37 -3 -72 -10 -46 -9 -59 6 -97 9 -24 16 -45 16 -48 -4 -24 18 -87 50
-142 30 -51 53 -76 92 -101 29 -19 59 -40 67 -49 8 -8 29 -23 45 -33 17 -11
46 -32 65 -47 19 -15 71 -39 114 -53 69 -23 85 -25 130 -16 28 6 62 13 76 15
158 28 221 70 279 184 28 56 90 254 92 296 1 12 7 -4 15 -34 20 -80 24 -114
30 -225 3 -55 13 -118 21 -140 8 -22 22 -59 30 -82 15 -42 46 -64 64 -46 5 5
10 32 12 60 2 39 7 55 25 70 22 17 24 25 22 113 -2 129 -5 187 -15 239 l-7 45
53 -51 c30 -28 79 -71 109 -96 76 -62 230 -245 302 -358 21 -33 26 -67 33
-224 3 -71 8 -148 11 -170 2 -22 7 -62 10 -90 9 -76 47 -121 70 -83 4 7 7 158
6 336 -1 221 3 332 10 350 11 25 12 26 15 6 2 -12 19 -39 37 -60 18 -22 38
-49 45 -62 14 -26 33 -28 54 -7 31 31 186 66 304 69 141 4 151 -3 158 -115 3
-41 12 -80 19 -87 23 -23 45 -3 51 46 4 26 8 62 11 80 2 19 16 53 30 78 37 63
27 126 -25 157 -22 13 -35 14 -62 6 -19 -5 -61 -12 -94 -14 -234 -14 -311 -16
-342 -10 l-35 6 7 97 c3 53 9 133 12 177 8 122 7 328 -2 440 -9 120 -9 116 0
138 4 10 3 17 -4 17 -6 0 -11 19 -11 44 0 32 -7 52 -24 73 -20 25 -24 42 -30
152 -4 68 -9 128 -12 132 -3 5 2 12 10 15 19 7 21 30 4 40 -6 4 -8 3 -4 -4 3
-6 2 -13 -4 -17 -5 -3 -10 1 -10 9 0 8 7 19 16 24 15 8 14 11 -3 23 -21 15
-36 76 -21 85 12 8 10 44 -3 44 -5 0 -7 5 -4 10 3 6 13 10 21 10 9 0 12 -5 8
-12 -5 -8 -2 -9 9 -5 22 8 32 -9 11 -21 -14 -8 -14 -10 -1 -15 26 -10 52 68
37 109 -8 19 -5 29 10 44 11 11 26 20 33 20 7 0 4 7 -7 15 -17 13 -22 13 -39
-3 -19 -17 -19 -16 -5 18 18 43 62 57 56 18 -2 -18 1 -22 17 -20 33 6 38 19
15 42 -12 12 -18 25 -13 29 5 3 12 14 16 24 3 9 11 17 16 17 6 0 8 -6 5 -13
-6 -18 21 -41 40 -34 8 3 17 -1 20 -9 7 -17 33 -19 38 -2 6 16 -14 68 -24 68
-4 0 -8 -10 -8 -22 0 -18 -15 -18 -15 0 -1 18 -17 31 -32 25 -11 -4 -14 -3 -9
5 4 7 16 12 28 12 15 0 18 4 14 17 -7 18 41 76 56 67 5 -3 7 0 6 7 -2 7 3 13
10 14 7 0 16 6 21 13 5 9 11 6 19 -12 12 -27 5 -41 -14 -25 -10 8 -13 6 -11
-10 0 -11 4 -18 9 -15 9 6 29 -31 21 -40 -3 -3 -1 -6 6 -6 17 0 25 28 13 43
-7 8 -7 18 -2 27 9 13 10 13 10 0 1 -9 11 -3 29 18 30 35 41 40 41 18 0 -7
-11 -21 -25 -30 -27 -18 -24 -41 6 -49 10 -3 17 -1 14 3 -11 18 15 20 47 4 29
-13 34 -21 34 -50 l0 -33 -17 26 -17 26 -20 -32 c-18 -29 -21 -31 -30 -16 -6
11 -12 14 -16 7 -8 -14 33 -37 58 -33 10 1 23 -3 27 -11 7 -10 9 -9 9 5 0 9 4
17 9 17 12 0 9 -33 -4 -42 -7 -5 -6 -8 0 -8 7 0 9 -22 5 -62 -4 -35 -5 -79 -4
-98 8 -137 15 -214 20 -222 4 -6 4 -331 0 -553 0 -16 4 -48 8 -70 5 -22 8
-102 8 -179 -1 -129 0 -138 18 -143 11 -3 20 -14 20 -24 0 -11 4 -19 9 -19 20
0 21 37 2 160 -17 108 -20 150 -10 150 13 0 11 37 -2 46 -7 4 -9 21 -5 43 3
20 1 63 -4 95 -6 36 -6 65 0 76 5 10 7 20 3 23 -3 3 -6 114 -7 246 -1 132 -5
244 -9 247 -4 4 0 15 9 25 13 14 14 26 6 63 -5 26 -6 46 -1 46 5 0 9 5 9 11 0
5 -4 8 -9 5 -5 -3 -11 3 -14 14 -3 10 0 21 7 23 8 3 8 8 0 18 -11 16 -12 24 0
57 5 15 13 21 22 18 8 -3 14 -1 14 3 0 5 -7 11 -15 15 -19 7 -19 53 -1 72 19
18 30 18 22 -1 -4 -11 5 -21 29 -32 26 -12 35 -23 36 -42 0 -14 3 -38 5 -53 3
-16 0 -28 -6 -28 -5 0 -10 -4 -10 -10 0 -5 7 -7 16 -3 13 5 15 -3 14 -53 -1
-33 -1 -63 0 -69 2 -14 -1 -104 -5 -124 -9 -54 -16 -153 -10 -170 4 -14 11
-18 23 -14 23 9 33 25 26 46 -3 9 -1 17 5 17 15 0 18 42 5 70 -6 14 -10 34 -8
45 2 11 6 47 9 80 4 33 9 64 12 69 3 4 1 11 -5 15 -6 3 -12 40 -15 82 -2 41
-7 80 -10 86 -9 15 35 4 48 -11 19 -23 42 -24 74 -5 26 16 31 16 31 3 0 -8 5
-12 10 -9 6 3 10 -3 10 -13 0 -11 7 -25 15 -32 8 -7 12 -16 9 -21 -3 -5 -2 -9
3 -8 23 5 83 -40 83 -63 0 -4 5 -7 12 -5 6 1 22 -14 36 -33 14 -19 22 -27 19
-17 -4 11 -3 16 3 12 6 -3 10 -11 10 -16 0 -6 7 -17 15 -26 8 -8 13 -19 10
-24 -4 -5 4 -9 17 -9 13 0 30 -6 37 -12 10 -11 11 -10 6 5 -6 13 -2 17 16 19
43 2 48 3 55 11 5 4 14 -3 21 -15 8 -15 12 -17 13 -8 0 9 11 16 28 17 50 3 74
9 80 20 4 6 14 13 22 15 13 3 41 48 45 73 2 15 -26 45 -42 45 -7 0 -13 4 -13
10 0 5 -6 9 -12 7 -8 -1 -12 7 -11 21 2 13 -1 21 -5 18 -9 -5 -35 23 -40 42
-1 8 8 11 29 7 27 -5 30 -3 25 12 -6 16 -6 16 12 0 18 -16 20 -16 26 -2 11 29
7 36 -16 33 -17 -2 -23 2 -22 15 1 9 -2 17 -7 17 -5 0 -9 6 -9 14 0 14 -23 16
-37 3 -14 -15 -10 -47 6 -45 8 2 17 -5 19 -14 2 -11 -3 -18 -12 -18 -9 0 -16
5 -16 11 0 5 -5 7 -11 4 -10 -7 -28 11 -50 48 -7 13 -6 17 5 17 8 0 17 -8 19
-17 4 -17 5 -17 6 0 0 9 6 17 13 17 25 0 -5 15 -33 16 -27 2 -30 -1 -25 -22 4
-14 2 -24 -4 -24 -6 0 -8 5 -5 10 3 6 -1 13 -9 16 -9 3 -13 10 -10 15 3 5 -2
6 -10 3 -12 -5 -16 0 -16 17 0 17 -3 20 -9 11 -6 -10 -13 -8 -32 8 -13 12 -18
19 -11 15 7 -3 12 0 12 8 0 8 -11 13 -30 13 -18 0 -30 -5 -30 -13 0 -7 6 -13
14 -13 21 0 12 -35 -10 -38 -16 -3 -17 -1 -4 7 10 8 12 13 4 19 -6 4 -14 14
-17 22 -3 10 -8 4 -12 -16 -7 -32 -7 -32 -36 -16 -17 10 -25 20 -19 26 6 6 16
4 26 -5 15 -12 17 -12 9 0 -5 10 -4 12 3 7 20 -12 13 10 -8 29 -16 15 -20 15
-20 3 0 -10 -10 -15 -30 -15 -16 0 -30 4 -30 9 0 4 -9 8 -20 8 -11 0 -20 5
-20 10 0 6 -6 10 -13 10 -15 0 -63 47 -60 58 1 4 -9 6 -22 4 -32 -4 -39 13
-11 26 19 8 25 8 30 -3 8 -21 38 -7 31 15 -4 11 1 20 11 24 13 5 14 10 6 18
-8 8 -15 8 -26 -1 -11 -9 -15 -9 -19 1 -4 8 -6 7 -6 -4 -1 -22 -5 -22 -36 -2
-25 16 -34 44 -14 44 5 0 7 5 4 10 -3 6 -1 10 5 10 7 0 9 -8 5 -20 -7 -23 8
-26 50 -10 22 8 24 13 15 30 -6 11 -15 18 -20 15 -23 -14 -17 16 9 44 16 17
27 31 24 31 -3 0 0 6 6 14 15 18 -15 32 -34 16 -10 -8 -19 -5 -35 12 -17 19
-22 20 -30 8 -8 -13 -10 -13 -14 0 -9 29 -3 51 12 45 8 -3 12 0 10 7 -8 23
-27 19 -34 -6 -3 -14 -9 -25 -13 -24 -23 3 -39 -5 -53 -29 -10 -17 -18 -22
-18 -13 0 12 -2 12 -9 2 -7 -11 -9 -11 -14 2 -4 9 -1 16 4 16 6 0 9 9 6 20 -7
28 9 35 17 7 l6 -22 21 25 21 24 -24 20 c-15 12 -17 17 -6 13 10 -3 20 -1 24
5 5 7 9 7 13 -1 5 -8 13 -7 27 4 16 12 17 16 4 24 -8 5 -18 7 -22 5 -18 -12 5
42 27 61 20 18 62 79 69 103 6 18 4 22 -13 22 -12 0 -21 5 -21 10 0 6 7 10 16
10 8 0 12 5 9 10 -3 6 3 10 14 10 11 0 29 10 41 22 11 12 27 23 37 24 9 2 23
10 32 20 9 9 11 14 5 10 -7 -3 -14 0 -17 8 -3 8 2 16 14 19 22 6 25 0 34 -56
3 -27 2 -36 -6 -31 -8 4 -9 0 -4 -15 7 -22 -10 -123 -26 -153 -5 -10 -4 -18 1
-20 5 -2 10 -34 11 -73 3 -85 6 -95 29 -95 30 0 52 28 40 50 -6 11 -13 49 -16
85 -6 62 -5 67 15 72 12 3 21 10 21 15 0 6 -7 7 -15 4 -14 -5 -15 5 -10 72 4
42 8 87 11 98 2 12 -3 27 -11 34 -17 14 -20 40 -5 40 5 0 21 11 35 26 15 15
30 22 38 18 9 -6 9 -4 -1 8 -21 27 -50 29 -59 4 -4 -11 -6 -27 -5 -33 2 -8 -3
-10 -13 -7 -8 3 -16 14 -16 23 -1 9 -3 31 -5 48 -3 25 1 35 16 43 11 6 25 8
30 5 6 -3 10 1 10 10 0 13 -4 14 -21 5 -19 -11 -20 -10 -9 9 12 24 21 26 38 9
8 -8 15 -8 27 2 13 11 14 10 9 -5 -6 -15 -4 -16 14 -6 12 7 22 16 22 21 0 6 8
10 18 11 13 0 12 2 -5 9 -20 8 -21 13 -13 35 6 15 10 28 10 30 0 5 -37 -2 -53
-10 -6 -4 -5 -1 4 7 10 9 13 21 8 38 -4 14 -7 18 -8 9 -1 -9 -10 -24 -21 -34
-11 -10 -20 -23 -20 -29 0 -6 4 -4 10 4 8 12 10 12 15 -2 4 -9 13 -14 20 -11
19 6 12 -32 -9 -52 -23 -23 -29 -18 -22 18 5 30 5 31 -9 13 -8 -11 -18 -16
-22 -13 -4 4 -2 12 5 19 7 7 8 17 2 29 -7 11 -7 20 0 24 15 9 12 25 -4 19 -8
-3 -16 3 -19 16 -3 13 -10 19 -17 15 -7 -4 -13 1 -16 12 -6 21 -35 42 -66 48
-11 2 -28 7 -39 10 -11 4 -19 3 -18 -2z m-1418 -287 c9 -7 17 -16 17 -19 0 -7
-22 -4 -37 6 -15 9 -27 -9 -17 -25 6 -9 3 -9 -9 0 -13 11 -14 17 -4 33 14 22
25 23 50 5z m148 -39 c-10 -9 -11 -8 -5 6 3 10 9 15 12 12 3 -3 0 -11 -7 -18z
m-104 -9 c-3 -8 -6 -5 -6 6 -1 11 2 17 5 13 3 -3 4 -12 1 -19z m33 -8 c0 -5
-2 -10 -4 -10 -3 0 -8 5 -11 10 -3 6 -1 10 4 10 6 0 11 -4 11 -10z m80 -15 c0
-8 -4 -15 -10 -15 -5 0 -10 7 -10 15 0 8 5 15 10 15 6 0 10 -7 10 -15z m-20
-26 c0 -5 5 -7 11 -4 11 7 49 -22 49 -37 0 -4 -7 -8 -16 -8 -19 0 -75 45 -67
54 10 10 23 7 23 -5z m102 -41 c-7 -7 -12 -8 -12 -2 0 6 3 14 7 17 3 4 9 5 12
2 2 -3 -1 -11 -7 -17z m3 -28 c3 -6 -1 -7 -9 -4 -18 7 -21 14 -7 14 6 0 13 -4
16 -10z m-9 -347 c0 -26 -16 -53 -31 -53 -4 0 -4 14 0 30 4 20 3 30 -5 30 -6
0 -8 5 -5 10 3 6 14 10 24 10 12 0 17 -8 17 -27z m-56 -7 c0 -3 -4 -8 -10 -11
-5 -3 -10 -1 -10 4 0 6 5 11 10 11 6 0 10 -2 10 -4z m984 -42 c4 -9 0 -27 -9
-40 -19 -30 -19 -34 3 -34 9 0 29 -11 44 -24 14 -14 28 -23 30 -20 3 2 5 -3 5
-11 0 -8 -4 -15 -8 -15 -5 0 -6 -8 -3 -17 5 -14 4 -15 -4 -4 -6 8 -8 20 -5 26
4 13 -46 55 -65 55 -5 0 -15 6 -21 14 -10 11 -7 19 10 35 18 17 20 23 9 36 -7
8 -8 15 -2 15 5 0 13 -7 16 -16z m145 -59 c18 -26 29 -34 46 -31 13 2 26 2 29
-1 8 -8 -25 -53 -35 -47 -5 3 -12 -2 -15 -10 -3 -9 -12 -16 -20 -16 -17 0 -17
1 -4 36 8 21 7 31 -5 44 -8 9 -12 20 -8 23 3 4 2 7 -4 7 -6 0 -13 7 -17 15
-10 27 9 16 33 -20z m-185 -31 c3 -8 2 -12 -4 -9 -6 3 -10 10 -10 16 0 14 7
11 14 -7z m101 6 c3 -5 1 -10 -4 -10 -6 0 -11 5 -11 10 0 6 2 10 4 10 3 0 8
-4 11 -10z m-125 -10 c0 -5 -5 -10 -11 -10 -5 0 -7 5 -4 10 3 6 8 10 11 10 2
0 4 -4 4 -10z m189 -21 c-8 -5 -21 -8 -29 -8 -13 1 -13 1 0 6 8 3 19 13 24 22
7 12 10 13 14 2 2 -7 -2 -17 -9 -22z m-692 -64 c0 -8 -15 -28 -34 -45 -18 -17
-33 -26 -33 -21 0 4 7 15 16 22 9 7 20 23 25 36 10 26 26 31 26 8z m-73 -81
c3 -8 2 -12 -4 -9 -6 3 -10 10 -10 16 0 14 7 11 14 -7z m514 -136 c7 -7 12
-19 12 -27 -1 -13 -4 -12 -16 4 -8 11 -20 19 -25 18 -5 -2 -9 2 -9 7 0 14 23
13 38 -2z m786 -150 c-3 -5 1 -17 10 -27 14 -16 15 -20 2 -30 -12 -10 -15 -5
-21 28 -6 35 -9 39 -21 27 -8 -8 -14 -20 -14 -26 0 -6 -5 -8 -11 -5 -15 10 29
55 47 48 8 -3 11 -9 8 -15z m-1167 -14 c-3 -3 -12 -4 -19 -1 -8 3 -5 6 6 6 11
1 17 -2 13 -5z m-214 -186 c-4 -7 -6 -23 -5 -34 2 -12 -4 -29 -13 -37 -9 -10
-11 -18 -5 -22 5 -3 10 -11 10 -17 0 -6 -9 -3 -19 6 -11 10 -24 15 -29 12 -6
-3 -13 1 -16 10 -5 12 -2 15 10 10 10 -4 25 1 35 10 23 21 25 38 4 30 -23 -8
-18 10 8 27 27 20 30 20 20 5z m1260 -40 c5 1 6 -2 2 -8 -3 -5 -1 -10 4 -10 6
0 11 -8 11 -17 0 -15 -2 -16 -10 -3 -8 13 -10 12 -10 -2 0 -10 -4 -18 -9 -18
-5 0 -7 10 -4 23 4 17 2 19 -6 7 -5 -8 -11 -12 -13 -10 -31 48 -29 67 6 48 11
-7 25 -11 29 -10z m-1234 -54 c1 -6 -6 -11 -14 -11 -15 0 -21 38 -8 51 7 7 21
-18 22 -40z m-149 16 c0 -5 -4 -10 -9 -10 -6 0 -13 5 -16 10 -3 6 1 10 9 10 9
0 16 -4 16 -10z m168 -15 c-3 -3 -9 2 -12 12 -6 14 -5 15 5 6 7 -7 10 -15 7
-18z m-93 -25 c3 -5 1 -10 -4 -10 -6 0 -11 5 -11 10 0 6 2 10 4 10 3 0 8 -4
11 -10z m0 -19 c6 -1 3 -5 -5 -10 -8 -6 -18 -7 -22 -5 -4 3 -8 0 -8 -7 0 -8
-5 -7 -17 2 -9 8 -14 9 -10 3 4 -7 0 -15 -8 -18 -11 -4 -15 0 -13 12 4 25 25
31 83 23z m-1052 -635 c75 -32 115 -95 138 -216 26 -138 18 -223 -36 -387 -27
-84 -34 -92 -120 -133 -115 -54 -222 -68 -273 -33 -15 10 -36 20 -47 23 -11 3
-25 16 -31 29 -6 12 -14 22 -18 22 -3 -1 -10 -1 -14 -1 -9 0 -78 115 -105 175
-27 60 -31 169 -8 229 19 52 106 159 157 195 16 11 41 31 55 43 13 12 34 30
46 41 30 27 61 15 68 -26 3 -18 7 -86 9 -152 4 -137 9 -155 41 -155 26 0 31
12 34 95 2 33 4 71 6 85 1 14 3 60 4 103 l1 77 30 0 c17 0 45 -6 63 -14z m664
-24 c26 -14 38 -63 23 -91 -13 -26 -120 -81 -155 -81 -15 0 -35 -5 -45 -10
-10 -6 -21 -6 -24 -2 -2 4 -8 49 -11 100 -6 73 -4 93 6 96 83 24 146 20 206
-12z"/>
<path d="M3040 3876 c0 -2 7 -6 15 -10 8 -3 15 -1 15 4 0 6 -7 10 -15 10 -8 0
-15 -2 -15 -4z"/>
<path d="M4235 3320 c3 -5 8 -10 11 -10 2 0 4 5 4 10 0 6 -5 10 -11 10 -5 0
-7 -4 -4 -10z"/>
<path d="M4415 4281 c-3 -5 -2 -12 3 -15 5 -3 9 1 9 9 0 17 -3 19 -12 6z"/>
<path d="M4623 4273 c-7 -2 -13 -8 -13 -13 0 -12 33 -5 38 8 4 12 -4 14 -25 5z"/>
<path d="M4220 4259 c0 -5 5 -7 10 -4 6 3 10 8 10 11 0 2 -4 4 -10 4 -5 0 -10
-5 -10 -11z"/>
<path d="M2913 4243 c-9 -22 2 -25 20 -5 15 17 16 19 1 19 -9 0 -18 -7 -21
-14z"/>
<path d="M3426 4244 c-4 -10 -1 -14 6 -12 15 5 23 28 10 28 -5 0 -13 -7 -16
-16z"/>
<path d="M4275 4250 c-3 -5 -1 -10 4 -10 6 0 11 5 11 10 0 6 -2 10 -4 10 -3 0
-8 -4 -11 -10z"/>
<path d="M4512 4249 c2 -7 10 -15 17 -17 8 -3 12 1 9 9 -2 7 -10 15 -17 17 -8
3 -12 -1 -9 -9z"/>
<path d="M993 4227 c-12 -6 -41 -25 -65 -40 -154 -101 -193 -120 -339 -167
-84 -28 -160 -50 -168 -50 -8 0 -22 7 -32 16 -25 23 -78 25 -119 4 -19 -10
-49 -21 -66 -24 -35 -8 -68 -38 -82 -76 -12 -33 5 -94 57 -205 24 -50 56 -124
71 -165 16 -41 40 -102 54 -135 l25 -60 -28 -30 c-58 -61 -47 -130 25 -165 48
-24 144 -130 144 -160 0 -11 21 -77 46 -147 25 -70 50 -159 55 -197 9 -69 25
-104 84 -182 18 -23 37 -62 44 -87 21 -73 63 -106 91 -72 11 13 11 32 0 100
-15 98 -15 99 67 152 86 55 144 83 223 110 92 31 262 104 352 150 45 23 71 44
79 62 l12 28 55 -53 c29 -29 61 -55 70 -58 127 -36 161 -49 174 -63 8 -10 27
-52 42 -93 45 -124 48 -129 62 -141 24 -20 64 4 64 38 0 32 -26 160 -39 195
-19 52 -6 85 65 161 38 41 106 126 151 191 45 64 83 113 86 109 3 -4 17 -44
32 -88 62 -188 118 -265 191 -265 35 0 62 28 81 85 11 34 -4 104 -30 133 -44
51 -69 175 -71 357 -1 114 -4 146 -19 173 -67 122 -189 142 -384 63 -49 -19
-53 -19 -54 -3 0 9 -2 26 -4 37 -2 11 -6 36 -9 55 -2 19 -8 58 -12 87 -6 46
-3 58 26 114 38 74 42 131 10 186 -34 61 -130 113 -210 113 -86 0 -298 -140
-367 -243 -47 -70 -56 -132 -57 -397 -1 -209 2 -247 22 -342 20 -93 42 -168
66 -229 6 -13 1 -15 -22 -11 -16 2 -43 -3 -59 -11 -22 -12 -46 -14 -87 -10
-48 5 -60 3 -79 -15 -12 -11 -103 -47 -202 -80 -99 -33 -194 -66 -212 -73 -18
-7 -35 -10 -39 -7 -7 7 -20 63 -29 125 -6 42 -40 161 -68 240 -15 40 -15 42 7
57 49 32 96 46 122 36 34 -13 81 -13 90 1 3 6 18 9 33 6 30 -6 61 8 61 27 0 7
14 32 31 56 17 23 33 58 36 79 4 20 10 39 15 42 13 8 -12 49 -29 49 -7 0 -13
5 -13 10 0 6 -14 17 -32 24 -32 14 -88 6 -114 -15 -14 -12 -186 -70 -191 -65
-6 6 -14 49 -19 116 l-6 65 53 50 c30 28 68 59 84 69 17 10 42 30 57 43 14 14
31 22 37 19 5 -4 17 -31 25 -61 17 -55 38 -85 60 -85 27 0 35 27 33 107 -1 71
1 85 24 119 83 125 110 182 104 216 -4 18 -6 41 -6 51 0 22 -55 57 -89 57 -14
0 -35 -6 -47 -13z m831 -380 c10 -7 33 -66 56 -140 l38 -128 -40 -25 c-26 -17
-46 -41 -59 -69 -18 -41 -18 -46 -4 -82 9 -22 31 -53 49 -71 19 -18 36 -46 40
-64 9 -48 42 -98 66 -98 27 0 42 33 37 87 -3 37 0 50 21 74 31 37 78 63 87 48
10 -15 -38 -103 -103 -187 -74 -97 -93 -112 -140 -106 -20 3 -54 5 -76 4 -43
-1 -103 34 -131 77 -46 69 -57 294 -24 478 l20 110 57 52 c60 55 77 61 106 40z
m-1238 -363 c15 -36 14 -51 -4 -40 -9 5 -22 76 -14 76 1 0 10 -16 18 -36z"/>
<path d="M4480 4229 c0 -5 5 -7 10 -4 6 3 10 8 10 11 0 2 -4 4 -10 4 -5 0 -10
-5 -10 -11z"/>
<path d="M4170 4219 c0 -5 5 -7 10 -4 6 3 10 8 10 11 0 2 -4 4 -10 4 -5 0 -10
-5 -10 -11z"/>
<path d="M4196 4209 c-10 -10 -16 -24 -14 -31 3 -8 11 -3 23 15 21 33 17 41
-9 16z"/>
<path d="M4240 4221 c0 -5 5 -13 10 -16 6 -3 10 -2 10 4 0 5 -4 13 -10 16 -5
3 -10 2 -10 -4z"/>
<path d="M2970 4215 c1 -12 25 -45 34 -45 3 0 6 9 6 21 0 12 -4 18 -11 13 -6
-3 -15 0 -20 7 -5 8 -9 10 -9 4z"/>
<path d="M3145 4200 c3 -5 8 -10 11 -10 2 0 4 5 4 10 0 6 -5 10 -11 10 -5 0
-7 -4 -4 -10z"/>
<path d="M4115 4200 c3 -6 1 -10 -4 -10 -6 0 -11 -5 -11 -11 0 -8 4 -8 14 0
11 9 15 9 19 -1 4 -9 6 -8 6 3 1 9 -6 20 -15 23 -8 3 -12 2 -9 -4z"/>
<path d="M3040 4166 c0 -18 26 -39 39 -32 6 4 4 14 -7 26 -19 23 -32 26 -32 6z"/>
<path d="M2820 4159 c0 -5 5 -7 10 -4 6 3 10 8 10 11 0 2 -4 4 -10 4 -5 0 -10
-5 -10 -11z"/>
<path d="M2936 4157 c3 -10 9 -15 12 -12 3 3 0 11 -7 18 -10 9 -11 8 -5 -6z"/>
<path d="M2470 4145 c0 -8 2 -15 4 -15 2 0 6 7 10 15 3 8 1 15 -4 15 -6 0 -10
-7 -10 -15z"/>
<path d="M2965 4150 c3 -5 10 -10 16 -10 5 0 9 5 9 10 0 6 -7 10 -16 10 -8 0
-12 -4 -9 -10z"/>
<path d="M3226 4144 c-3 -9 -4 -20 -1 -24 9 -15 35 1 35 21 0 23 -25 25 -34 3z"/>
<path d="M2840 4133 c0 -9 -7 -21 -15 -27 -14 -10 -14 -13 0 -34 9 -12 21 -20
26 -16 6 4 3 14 -7 25 -20 22 -9 26 13 4 8 -8 20 -12 26 -8 8 5 8 8 -1 11 -19
6 -14 22 8 22 11 0 20 -5 20 -11 0 -5 4 -8 8 -5 5 3 15 -4 22 -15 8 -10 19
-19 24 -19 5 0 2 8 -7 18 -20 22 -22 42 -5 42 7 0 2 7 -10 16 -21 14 -48 11
-38 -5 3 -3 -4 -7 -15 -7 -10 0 -19 3 -19 7 0 4 -7 9 -15 13 -10 3 -15 -1 -15
-11z"/>
<path d="M3001 4136 c-10 -11 -9 -14 1 -12 14 2 23 15 15 22 -2 2 -10 -2 -16
-10z"/>
<path d="M2680 4123 c0 -22 25 -42 40 -33 18 11 6 36 -19 43 -14 3 -21 0 -21
-10z"/>
<path d="M3488 4128 c9 -9 15 -9 24 0 9 9 7 12 -12 12 -19 0 -21 -3 -12 -12z"/>
<path d="M3022 4115 c-19 -10 -20 -14 -7 -18 8 -4 14 -12 13 -19 -2 -8 5 -12
20 -10 12 2 22 0 21 -5 -3 -20 2 -27 11 -13 8 13 10 13 10 -1 0 -19 26 -33 35
-18 4 5 -3 21 -14 35 -11 14 -18 33 -15 42 5 15 4 14 -6 -1 -11 -17 -12 -17
-28 1 -15 17 -20 18 -40 7z"/>
<path d="M4130 4110 c0 -5 5 -10 11 -10 5 0 7 5 4 10 -3 6 -8 10 -11 10 -2 0
-4 -4 -4 -10z"/>
<path d="M2070 4100 c0 -5 5 -10 11 -10 5 0 7 5 4 10 -3 6 -8 10 -11 10 -2 0
-4 -4 -4 -10z"/>
<path d="M2955 4100 c3 -5 8 -10 11 -10 2 0 4 5 4 10 0 6 -5 10 -11 10 -5 0
-7 -4 -4 -10z"/>
<path d="M2787 4079 c-4 -16 -3 -18 9 -8 7 6 11 15 8 20 -8 13 -11 11 -17 -12z"/>
<path d="M3510 4081 c0 -6 4 -13 10 -16 6 -3 7 1 4 9 -7 18 -14 21 -14 7z"/>
<path d="M4656 4083 c5 -5 12 -12 16 -18 4 -6 8 -2 8 8 0 9 -7 17 -17 17 -9 0
-12 -3 -7 -7z"/>
<path d="M2730 4065 c0 -9 5 -15 11 -13 6 2 11 8 11 13 0 5 -5 11 -11 13 -6 2
-11 -4 -11 -13z"/>
<path d="M3265 4070 c-3 -5 1 -10 10 -10 9 0 13 5 10 10 -3 6 -8 10 -10 10 -2
0 -7 -4 -10 -10z"/>
<path d="M3850 4065 c0 -9 5 -15 11 -13 6 2 11 8 11 13 0 5 -5 11 -11 13 -6 2
-11 -4 -11 -13z"/>
<path d="M4170 4064 c0 -8 -4 -12 -10 -9 -5 3 -10 1 -10 -5 0 -7 7 -9 16 -6 9
3 18 6 20 6 2 0 4 7 4 15 0 8 -4 15 -10 15 -5 0 -10 -7 -10 -16z"/>
<path d="M2890 4060 c0 -5 5 -10 10 -10 6 0 10 -7 10 -16 0 -9 7 -14 18 -12 9
2 17 10 17 18 0 9 -7 14 -17 12 -10 -2 -18 2 -18 8 0 5 -4 10 -10 10 -5 0 -10
-4 -10 -10z"/>
<path d="M4093 4052 c-3 -9 -8 -21 -11 -27 -3 -5 -2 -7 2 -3 5 4 18 3 30 -1
18 -8 21 -5 21 18 1 31 -32 41 -42 13z"/>
<path d="M3350 4039 c0 -5 5 -7 10 -4 6 3 10 8 10 11 0 2 -4 4 -10 4 -5 0 -10
-5 -10 -11z"/>
<path d="M3430 4039 c0 -5 5 -7 10 -4 6 3 10 8 10 11 0 2 -4 4 -10 4 -5 0 -10
-5 -10 -11z"/>
<path d="M4580 4034 c0 -11 -6 -15 -20 -11 -10 3 -19 2 -18 -2 3 -27 -30 -37
-60 -17 -15 9 -40 -9 -29 -20 4 -4 27 -8 52 -10 39 -3 45 -1 45 16 0 11 5 20
10 20 6 0 10 -5 10 -11 0 -5 5 -7 10 -4 6 4 8 10 5 15 -3 5 2 16 11 24 14 15
14 16 0 16 -9 0 -16 -7 -16 -16z"/>
<path d="M2745 4020 c4 -6 11 -8 16 -5 14 9 11 15 -7 15 -8 0 -12 -5 -9 -10z"/>
<path d="M3139 4026 c-3 -3 -1 -26 5 -51 11 -45 35 -61 52 -33 4 7 3 8 -4 4
-8 -5 -12 0 -12 13 0 11 5 23 10 26 6 4 7 11 3 18 -4 7 -9 5 -13 -7 -9 -27
-24 -24 -30 7 -3 16 -8 26 -11 23z"/>
<path d="M3670 4015 c0 -8 5 -15 11 -15 6 0 17 7 25 15 14 13 13 15 -10 15
-16 0 -26 -6 -26 -15z"/>
<path d="M4710 4026 c0 -9 30 -14 35 -6 4 6 -3 10 -14 10 -12 0 -21 -2 -21 -4z"/>
<path d="M3297 4013 c-4 -3 -7 -13 -7 -22 1 -13 3 -13 11 2 11 19 8 33 -4 20z"/>
<path d="M3525 4010 c-3 -5 -3 -10 2 -11 4 0 16 -2 26 -4 22 -4 22 2 -2 15
-13 7 -22 7 -26 0z"/>
<path d="M3966 4013 c-11 -11 -6 -23 9 -23 8 0 15 4 15 9 0 13 -16 22 -24 14z"/>
<path d="M4610 3997 c0 -5 -10 -17 -22 -27 -20 -16 -21 -21 -9 -32 8 -7 11 -8
8 -2 -8 14 17 26 36 18 8 -3 13 5 15 24 1 20 -3 29 -13 29 -8 0 -15 -4 -15
-10z"/>
<path d="M4035 3990 c3 -5 14 -10 23 -10 15 0 15 2 2 10 -20 13 -33 13 -25 0z"/>
<path d="M3080 3980 c0 -5 5 -10 10 -10 6 0 10 5 10 10 0 6 -4 10 -10 10 -5 0
-10 -4 -10 -10z"/>
<path d="M3416 3973 c-10 -25 10 -39 23 -15 10 19 6 32 -10 32 -4 0 -10 -8
-13 -17z"/>
<path d="M3485 3980 c-3 -5 -1 -10 4 -10 6 0 11 5 11 10 0 6 -2 10 -4 10 -3 0
-8 -4 -11 -10z"/>
<path d="M2535 3970 c-3 -5 -1 -10 4 -10 6 0 11 5 11 10 0 6 -2 10 -4 10 -3 0
-8 -4 -11 -10z"/>
<path d="M2625 3960 c-3 -5 1 -10 9 -10 9 0 16 5 16 10 0 6 -4 10 -9 10 -6 0
-13 -4 -16 -10z"/>
<path d="M3254 3956 c-3 -9 -14 -16 -24 -16 -23 0 -32 -13 -24 -34 9 -23 52
-17 46 7 -3 10 3 23 13 31 13 9 15 15 6 20 -6 4 -14 0 -17 -8z"/>
<path d="M3800 3940 c0 -5 5 -10 10 -10 6 0 10 5 10 10 0 6 -4 10 -10 10 -5 0
-10 -4 -10 -10z"/>
<path d="M3878 3943 c7 -3 16 -2 19 1 4 3 -2 6 -13 5 -11 0 -14 -3 -6 -6z"/>
<path d="M2365 3920 c-3 -5 -1 -10 4 -10 6 0 11 5 11 10 0 6 -2 10 -4 10 -3 0
-8 -4 -11 -10z"/>
<path d="M3315 3920 c-3 -5 -1 -10 4 -10 6 0 11 5 11 10 0 6 -2 10 -4 10 -3 0
-8 -4 -11 -10z"/>
<path d="M3490 3921 c0 -6 5 -13 10 -16 6 -3 10 1 10 9 0 9 -4 16 -10 16 -5 0
-10 -4 -10 -9z"/>
<path d="M2651 3894 c0 -11 3 -14 6 -6 3 7 2 16 -1 19 -3 4 -6 -2 -5 -13z"/>
<path d="M3415 3875 c1 -16 3 -33 4 -37 2 -16 31 -7 41 13 17 30 6 53 -19 40
-14 -8 -21 -7 -24 2 -3 6 -4 -1 -2 -18z"/>
<path d="M3807 3893 c-4 -3 -7 -11 -7 -17 0 -6 5 -5 12 2 6 6 9 14 7 17 -3 3
-9 2 -12 -2z"/>
<path d="M2515 3879 c-4 -6 -1 -17 7 -25 12 -12 14 -11 15 6 2 23 -13 35 -22
19z"/>
<path d="M3227 3873 c-7 -11 10 -40 18 -31 4 4 3 14 -3 24 -5 9 -12 12 -15 7z"/>
<path d="M3917 3859 c-3 -13 0 -22 9 -26 20 -8 36 10 28 30 -9 24 -31 21 -37
-4z"/>
<path d="M3160 3850 c0 -5 7 -7 15 -4 8 4 15 8 15 10 0 2 -7 4 -15 4 -8 0 -15
-4 -15 -10z"/>
<path d="M3585 3850 c-3 -5 1 -10 10 -10 9 0 13 5 10 10 -3 6 -8 10 -10 10 -2
0 -7 -4 -10 -10z"/>
<path d="M2666 3835 c4 -8 8 -15 10 -15 2 0 4 7 4 15 0 8 -4 15 -10 15 -5 0
-7 -7 -4 -15z"/>
<path d="M3195 3840 c-7 -12 2 -30 16 -30 5 0 9 9 9 20 0 21 -15 27 -25 10z"/>
<path d="M3273 3843 c-21 -8 -16 -43 6 -43 14 0 17 6 13 25 -2 14 -5 25 -6 24
0 0 -7 -3 -13 -6z"/>
<path d="M3508 3843 c7 -3 16 -2 19 1 4 3 -2 6 -13 5 -11 0 -14 -3 -6 -6z"/>
<path d="M3539 3833 c-13 -16 -12 -17 4 -4 16 13 21 21 13 21 -2 0 -10 -8 -17
-17z"/>
<path d="M3810 3840 c0 -5 5 -10 11 -10 5 0 7 5 4 10 -3 6 -8 10 -11 10 -2 0
-4 -4 -4 -10z"/>
<path d="M3360 3833 c0 -5 4 -14 9 -22 8 -12 12 -13 26 -1 13 10 13 15 3 21
-16 11 -38 11 -38 2z"/>
<path d="M3695 3830 c3 -5 8 -10 11 -10 2 0 4 5 4 10 0 6 -5 10 -11 10 -5 0
-7 -4 -4 -10z"/>
<path d="M3768 3826 c-10 -7 -15 -16 -12 -19 4 -3 13 1 21 9 20 19 13 26 -9
10z"/>
<path d="M3236 3817 c3 -10 9 -15 12 -12 3 3 0 11 -7 18 -10 9 -11 8 -5 -6z"/>
<path d="M3332 3818 c-15 -15 -16 -31 0 -26 6 2 12 12 14 21 3 20 2 21 -14 5z"/>
<path d="M3483 3813 c-4 -9 -2 -18 4 -20 6 -2 9 -13 6 -23 -3 -11 0 -20 6 -20
11 0 13 6 13 40 0 34 -2 40 -12 40 -6 0 -14 -8 -17 -17z"/>
<path d="M3960 3819 c0 -5 5 -7 10 -4 6 3 10 8 10 11 0 2 -4 4 -10 4 -5 0 -10
-5 -10 -11z"/>
<path d="M3616 3811 c-4 -5 -2 -12 3 -15 5 -4 12 -2 15 3 4 5 2 12 -3 15 -5 4
-12 2 -15 -3z"/>
<path d="M3700 3798 c0 -21 18 -43 27 -34 4 5 2 11 -5 13 -6 3 -10 9 -7 13 3
5 1 11 -5 15 -5 3 -10 0 -10 -7z"/>
<path d="M3785 3800 c3 -5 8 -10 11 -10 2 0 4 5 4 10 0 6 -5 10 -11 10 -5 0
-7 -4 -4 -10z"/>
<path d="M3220 3785 c0 -9 5 -13 11 -9 6 3 15 0 20 -7 6 -10 9 -10 9 -2 0 7
-9 17 -20 23 -16 9 -20 8 -20 -5z"/>
<path d="M3886 3757 c18 -24 42 -28 28 -5 -5 7 -1 9 9 5 10 -3 17 -2 17 2 0 5
-7 11 -15 15 -8 3 -15 1 -15 -5 0 -6 -8 -5 -21 2 -21 11 -21 11 -3 -14z"/>
<path d="M4600 3759 c0 -18 2 -19 15 -9 15 12 12 30 -6 30 -5 0 -9 -10 -9 -21z"/>
<path d="M3360 3766 c0 -2 7 -6 15 -10 8 -3 15 -1 15 4 0 6 -7 10 -15 10 -8 0
-15 -2 -15 -4z"/>
<path d="M2450 3734 c0 -8 5 -12 10 -9 6 4 8 11 5 16 -9 14 -15 11 -15 -7z"/>
<path d="M2650 3740 c0 -5 5 -10 10 -10 6 0 10 5 10 10 0 6 -4 10 -10 10 -5 0
-10 -4 -10 -10z"/>
<path d="M4306 3733 c-10 -25 10 -39 23 -15 10 19 6 32 -10 32 -4 0 -10 -8
-13 -17z"/>
<path d="M3800 3730 c0 -5 5 -10 10 -10 6 0 10 5 10 10 0 6 -4 10 -10 10 -5 0
-10 -4 -10 -10z"/>
<path d="M3925 3720 c-3 -5 1 -10 10 -10 9 0 13 5 10 10 -3 6 -8 10 -10 10 -2
0 -7 -4 -10 -10z"/>
<path d="M3485 3710 c3 -5 8 -10 11 -10 2 0 4 5 4 10 0 6 -5 10 -11 10 -5 0
-7 -4 -4 -10z"/>
<path d="M2515 3690 c-3 -5 -2 -10 4 -10 5 0 13 5 16 10 3 6 2 10 -4 10 -5 0
-13 -4 -16 -10z"/>
<path d="M3515 3690 c-3 -5 -1 -10 4 -10 6 0 11 5 11 10 0 6 -2 10 -4 10 -3 0
-8 -4 -11 -10z"/>
<path d="M2777 3660 c-3 -11 0 -23 6 -27 7 -3 9 -3 5 2 -4 4 -3 14 3 21 6 7 6
15 1 18 -6 3 -12 -3 -15 -14z"/>
<path d="M3690 3664 c-10 -11 -10 -14 1 -14 8 0 20 4 27 9 11 7 11 9 -1 14 -9
3 -21 -1 -27 -9z"/>
<path d="M3840 3669 c0 -5 5 -7 10 -4 6 3 10 8 10 11 0 2 -4 4 -10 4 -5 0 -10
-5 -10 -11z"/>
<path d="M4500 3669 c0 -5 5 -7 10 -4 6 3 10 8 10 11 0 2 -4 4 -10 4 -5 0 -10
-5 -10 -11z"/>
<path d="M2845 3650 c-3 -11 -13 -20 -21 -20 -8 0 -12 -5 -9 -11 12 -19 38 -4
41 24 3 32 -2 35 -11 7z"/>
<path d="M3535 3660 c-3 -5 1 -10 10 -10 9 0 13 5 10 10 -3 6 -8 10 -10 10 -2
0 -7 -4 -10 -10z"/>
<path d="M3595 3650 c3 -5 8 -10 11 -10 2 0 4 5 4 10 0 6 -5 10 -11 10 -5 0
-7 -4 -4 -10z"/>
<path d="M2670 3642 c0 -4 9 -13 20 -20 19 -12 20 -11 8 8 -13 20 -28 27 -28
12z"/>
<path d="M3703 3626 c-9 -11 -7 -13 13 -13 14 0 24 5 24 13 0 18 -21 17 -37 0z"/>
<path d="M2730 3619 c0 -5 5 -7 10 -4 6 3 10 8 10 11 0 2 -4 4 -10 4 -5 0 -10
-5 -10 -11z"/>
<path d="M2670 3601 c0 -6 4 -13 10 -16 6 -3 7 1 4 9 -7 18 -14 21 -14 7z"/>
<path d="M2816 3589 c3 -5 12 -9 21 -9 19 0 9 13 -12 16 -8 1 -13 -2 -9 -7z"/>
<path d="M2890 3575 c0 -14 5 -25 10 -25 6 0 10 2 10 4 0 2 3 11 6 19 3 8 -2
17 -10 20 -12 5 -16 0 -16 -18z"/>
<path d="M3747 3586 c-4 -10 1 -12 14 -9 23 6 24 9 5 16 -8 3 -17 0 -19 -7z"/>
<path d="M3710 3579 c0 -5 5 -7 10 -4 6 3 10 8 10 11 0 2 -4 4 -10 4 -5 0 -10
-5 -10 -11z"/>
<path d="M2780 3549 c-13 -24 3 -51 26 -42 8 3 25 -2 39 -11 14 -9 25 -12 25
-7 0 5 -9 13 -20 16 -23 7 -25 16 -8 33 9 9 15 9 26 -1 12 -10 14 -9 10 3 -3
8 -14 15 -25 15 -12 0 -25 3 -29 8 -13 13 -33 7 -44 -14z"/>
<path d="M4365 3560 c-3 -5 -1 -10 4 -10 6 0 11 5 11 10 0 6 -2 10 -4 10 -3 0
-8 -4 -11 -10z"/>
<path d="M3708 3553 c7 -3 16 -2 19 1 4 3 -2 6 -13 5 -11 0 -14 -3 -6 -6z"/>
<path d="M4270 3535 c0 -8 5 -15 10 -15 6 0 10 -11 10 -25 0 -14 -3 -25 -8
-25 -14 0 -38 36 -35 50 3 9 -2 7 -12 -5 -11 -14 -12 -21 -4 -24 21 -7 59 -44
59 -58 0 -8 4 -12 9 -9 5 4 8 18 6 34 -2 15 2 33 7 39 7 9 6 15 -6 19 -9 3
-16 12 -16 20 0 8 -4 14 -10 14 -5 0 -10 -7 -10 -15z"/>
<path d="M2706 3532 c-2 -4 4 -8 14 -8 10 0 16 4 14 8 -3 4 -9 8 -14 8 -5 0
-11 -4 -14 -8z"/>
<path d="M4476 3531 c-3 -5 1 -11 9 -15 15 -6 29 7 18 18 -9 9 -21 8 -27 -3z"/>
<path d="M2700 3465 c0 -8 9 -15 20 -15 11 0 20 2 20 5 0 2 -9 9 -20 15 -16 9
-20 8 -20 -5z"/>
<path d="M2798 3460 c-5 -24 24 -78 43 -83 21 -6 33 7 48 46 8 21 8 27 -4 27
-7 0 -20 6 -27 13 -18 18 -57 16 -60 -3z"/>
<path d="M4352 3472 c-15 -10 -7 -38 13 -46 22 -8 40 21 25 39 -14 17 -20 18
-38 7z"/>
<path d="M3250 3390 c0 -16 4 -30 8 -30 5 0 9 14 10 30 0 17 -4 30 -9 30 -5 0
-9 -13 -9 -30z"/>
<path d="M2790 3380 c0 -5 5 -10 10 -10 6 0 10 5 10 10 0 6 -4 10 -10 10 -5 0
-10 -4 -10 -10z"/>
<path d="M2920 3385 c-1 -5 -2 -13 -1 -17 0 -5 -3 -8 -9 -8 -5 0 -10 -5 -10
-12 0 -8 6 -7 16 4 9 9 14 22 11 30 -3 7 -6 9 -7 3z"/>
<path d="M3040 3367 c-1 -20 -2 -20 -11 -4 -12 21 -65 23 -73 2 -6 -18 5 -20
22 -3 18 18 25 2 14 -31 -7 -19 -7 -33 -1 -36 5 -4 5 -13 -1 -25 -14 -26 -13
-29 10 -23 11 3 20 0 20 -6 0 -6 5 -11 11 -11 6 0 9 16 8 40 -2 21 1 43 6 47
4 5 5 2 0 -6 -6 -10 -4 -12 5 -6 10 6 9 11 -5 22 -18 12 -17 13 6 13 19 0 21
2 9 10 -10 6 -11 10 -2 10 17 0 15 17 -3 24 -11 4 -15 -1 -15 -17z"/>
<path d="M4380 3360 c0 -22 1 -23 24 -14 18 7 10 34 -10 34 -8 0 -14 -9 -14
-20z"/>
<path d="M2722 3359 c2 -6 8 -10 13 -10 5 0 11 4 13 10 2 6 -4 11 -13 11 -9 0
-15 -5 -13 -11z"/>
<path d="M3215 3340 c-4 -6 -11 -8 -17 -4 -6 4 -8 -3 -6 -17 3 -26 25 -34 48
-19 13 9 13 12 -2 24 -10 7 -15 16 -11 19 3 4 4 7 0 7 -3 0 -9 -5 -12 -10z"/>
<path d="M4314 3315 c-2 -22 1 -25 20 -19 17 5 19 4 9 -7 -30 -31 -11 -37 45
-13 33 14 35 17 20 28 -10 7 -15 16 -12 19 8 8 -18 3 -33 -6 -6 -4 -14 -1 -16
5 -4 9 -6 9 -6 -1 -1 -12 -4 -11 -13 2 -12 16 -13 15 -14 -8z"/>
<path d="M3280 3301 c0 -5 5 -13 10 -16 6 -3 10 -2 10 4 0 5 -4 13 -10 16 -5
3 -10 2 -10 -4z"/>
<path d="M3396 3293 c-3 -3 -3 -10 0 -14 7 -12 34 -11 34 0 0 11 -26 22 -34
14z"/>
<path d="M4500 3290 c0 -5 5 -10 11 -10 5 0 7 5 4 10 -3 6 -8 10 -11 10 -2 0
-4 -4 -4 -10z"/>
<path d="M2900 3280 c0 -5 5 -10 11 -10 5 0 7 5 4 10 -3 6 -8 10 -11 10 -2 0
-4 -4 -4 -10z"/>
<path d="M3050 3270 c0 -13 7 -20 19 -20 24 0 35 26 15 34 -26 10 -34 7 -34
-14z"/>
<path d="M2821 3264 c0 -11 3 -14 6 -6 3 7 2 16 -1 19 -3 4 -6 -2 -5 -13z"/>
<path d="M3151 3256 c-6 -7 -9 -20 -5 -29 6 -17 47 -31 52 -17 2 5 10 6 18 3
21 -8 17 9 -10 35 -28 26 -39 27 -55 8z"/>
<path d="M3250 3240 c0 -5 7 -10 15 -10 8 0 15 5 15 10 0 6 -7 10 -15 10 -8 0
-15 -4 -15 -10z"/>
<path d="M4309 3233 c-13 -15 -12 -15 9 -4 23 12 28 21 13 21 -5 0 -15 -7 -22
-17z"/>
<path d="M4355 3240 c3 -5 10 -10 16 -10 5 0 9 5 9 10 0 6 -7 10 -16 10 -8 0
-12 -4 -9 -10z"/>
<path d="M2600 3225 c0 -8 5 -15 10 -15 6 0 10 7 10 15 0 8 -4 15 -10 15 -5 0
-10 -7 -10 -15z"/>
<path d="M4711 3214 c0 -11 3 -14 6 -6 3 7 2 16 -1 19 -3 4 -6 -2 -5 -13z"/>
<path d="M3120 3210 c0 -5 5 -10 11 -10 5 0 7 5 4 10 -3 6 -8 10 -11 10 -2 0
-4 -4 -4 -10z"/>
<path d="M4970 3196 c0 -31 6 -34 13 -6 3 11 1 23 -4 26 -5 3 -9 -6 -9 -20z"/>
<path d="M2926 3201 c-4 -5 -2 -12 3 -15 5 -4 12 -2 15 3 4 5 2 12 -3 15 -5 4
-12 2 -15 -3z"/>
<path d="M4370 3200 c0 -5 9 -10 20 -10 11 0 20 5 20 10 0 6 -9 10 -20 10 -11
0 -20 -4 -20 -10z"/>
<path d="M2540 3171 c0 -6 5 -13 10 -16 6 -3 10 1 10 9 0 9 -4 16 -10 16 -5 0
-10 -4 -10 -9z"/>
<path d="M3145 3170 c4 -6 11 -8 16 -5 14 9 11 15 -7 15 -8 0 -12 -5 -9 -10z"/>
<path d="M4482 3161 c16 -25 31 -27 26 -4 -2 10 -11 19 -21 21 -16 3 -17 1 -5
-17z"/>
<path d="M4806 3171 c-3 -5 0 -13 7 -19 10 -8 13 -6 13 9 0 20 -11 25 -20 10z"/>
<path d="M4350 3155 c0 -10 -5 -13 -12 -9 -10 6 -10 5 -1 -8 7 -8 10 -17 7
-21 -9 -8 15 -47 29 -47 32 1 56 77 26 81 -20 3 -24 5 -36 12 -9 5 -13 3 -13
-8z"/>
<path d="M2876 3151 c-3 -5 1 -11 9 -15 8 -3 15 -1 15 4 0 13 -18 22 -24 11z"/>
<path d="M3196 3138 c9 -31 12 -34 26 -20 9 9 9 12 0 12 -7 0 -12 7 -12 15 0
8 -5 15 -11 15 -6 0 -8 -9 -3 -22z"/>
<path d="M3070 3125 c-5 -14 -10 -33 -10 -41 0 -8 -4 -13 -9 -10 -5 4 -7 -3
-4 -14 5 -18 15 -24 34 -22 4 1 20 -3 36 -7 27 -8 31 -6 47 24 10 18 15 38 11
44 -10 18 -24 3 -18 -19 4 -14 0 -20 -10 -20 -17 0 -43 37 -39 56 1 6 -4 17
-13 24 -12 10 -16 8 -25 -15z"/>
<path d="M4650 3119 c0 -5 5 -7 10 -4 6 3 10 8 10 11 0 2 -4 4 -10 4 -5 0 -10
-5 -10 -11z"/>
<path d="M2965 3111 c-3 -5 -1 -13 5 -16 6 -4 8 -15 5 -24 -3 -10 1 -24 10
-31 13 -11 19 -11 32 3 13 13 14 19 4 31 -8 9 -17 13 -22 10 -5 -3 -9 4 -9 15
0 22 -14 28 -25 12z"/>
<path d="M4790 3106 c0 -9 5 -16 10 -16 6 0 10 4 10 9 0 6 -4 13 -10 16 -5 3
-10 -1 -10 -9z"/>
<path d="M4830 3111 c0 -5 7 -12 16 -15 14 -5 15 -4 4 9 -14 17 -20 19 -20 6z"/>
<path d="M4544 3095 c-4 -9 -2 -21 3 -26 13 -13 40 -2 48 19 3 9 3 13 -1 10
-4 -4 -15 -3 -25 3 -15 8 -21 6 -25 -6z"/>
<path d="M4609 3072 l-26 -17 27 -22 28 -23 0 40 c0 22 0 40 -1 40 -1 0 -14
-8 -28 -18z"/>
<path d="M4510 3070 c0 -5 5 -10 11 -10 5 0 7 5 4 10 -3 6 -8 10 -11 10 -2 0
-4 -4 -4 -10z"/>
<path d="M2945 3060 c3 -5 8 -10 11 -10 2 0 4 5 4 10 0 6 -5 10 -11 10 -5 0
-7 -4 -4 -10z"/>
<path d="M2536 3051 c-4 -5 -2 -12 3 -15 5 -4 12 -2 15 3 4 5 2 12 -3 15 -5 4
-12 2 -15 -3z"/>
<path d="M2590 3035 c0 -8 5 -15 10 -15 6 0 10 7 10 15 0 8 -4 15 -10 15 -5 0
-10 -7 -10 -15z"/>
<path d="M3172 3038 c3 -7 13 -15 23 -17 17 -3 17 -2 3 13 -20 19 -31 21 -26
4z"/>
<path d="M3077 3024 c-4 -4 3 -15 15 -26 15 -12 25 -15 32 -8 7 7 4 15 -10 25
-22 16 -28 18 -37 9z"/>
<path d="M3699 3018 c-25 -20 -31 -58 -11 -66 26 -10 39 -25 35 -42 -6 -28 11
-40 50 -33 20 3 37 10 37 15 0 6 -11 7 -25 4 -21 -5 -25 -3 -25 15 0 12 -8 23
-20 26 -22 6 -25 14 -11 29 6 5 5 20 -2 37 -10 24 -14 26 -28 15z"/>
<path d="M4600 3020 c0 -5 5 -10 11 -10 5 0 7 5 4 10 -3 6 -8 10 -11 10 -2 0
-4 -4 -4 -10z"/>
<path d="M4650 3020 c0 -5 5 -10 11 -10 5 0 7 5 4 10 -3 6 -8 10 -11 10 -2 0
-4 -4 -4 -10z"/>
<path d="M2872 3008 c-16 -16 -15 -29 7 -55 19 -23 38 -32 26 -13 -3 6 -2 10
4 10 6 0 15 9 21 19 18 34 -30 67 -58 39z"/>
<path d="M4713 3013 c4 -3 -1 -12 -11 -20 -15 -13 -15 -13 6 -3 19 9 23 30 5
30 -4 0 -3 -3 0 -7z"/>
<path d="M2950 2982 c0 -12 19 -26 26 -19 2 2 -2 10 -11 17 -9 8 -15 8 -15 2z"/>
<path d="M3820 2975 c0 -8 7 -15 15 -15 8 0 15 4 15 9 0 5 -7 11 -15 15 -9 3
-15 0 -15 -9z"/>
<path d="M3060 2969 c0 -5 5 -7 10 -4 6 3 10 8 10 11 0 2 -4 4 -10 4 -5 0 -10
-5 -10 -11z"/>
<path d="M3890 2972 c0 -6 -7 -9 -15 -6 -16 6 -21 -11 -6 -20 11 -7 36 22 27
31 -3 3 -6 1 -6 -5z"/>
<path d="M3095 2951 c-3 -5 -1 -12 5 -16 5 -3 10 1 10 9 0 18 -6 21 -15 7z"/>
<path d="M3782 2949 c2 -7 12 -13 22 -15 23 -3 15 20 -8 24 -11 3 -17 -1 -14
-9z"/>
<path d="M4850 2949 c0 -5 5 -7 10 -4 6 3 10 8 10 11 0 2 -4 4 -10 4 -5 0 -10
-5 -10 -11z"/>
<path d="M3115 2920 c-3 -5 1 -10 9 -10 9 0 16 5 16 10 0 6 -4 10 -9 10 -6 0
-13 -4 -16 -10z"/>
<path d="M3817 2909 c7 -7 15 -10 18 -7 3 3 -2 9 -12 12 -14 6 -15 5 -6 -5z"/>
<path d="M2911 2891 c-11 -19 -11 -25 0 -32 21 -13 34 7 22 33 l-10 23 -12
-24z"/>
<path d="M2950 2896 c0 -9 5 -16 10 -16 6 0 10 4 10 9 0 6 -4 13 -10 16 -5 3
-10 -1 -10 -9z"/>
<path d="M3590 2881 c0 -6 5 -13 10 -16 6 -3 10 -15 10 -26 0 -22 15 -25 24
-4 3 9 -3 19 -15 25 -11 6 -17 15 -14 21 4 5 1 9 -4 9 -6 0 -11 -4 -11 -9z"/>
<path d="M3818 2877 c-30 -12 -38 -37 -12 -37 14 0 14 -3 4 -15 -7 -9 -10 -19
-6 -22 10 -10 27 19 21 36 -3 8 2 22 11 32 10 11 15 19 13 18 -2 -1 -16 -6
-31 -12z"/>
<path d="M3868 2868 c-35 -12 -37 -27 -3 -20 14 2 25 8 25 13 0 4 9 6 20 4 11
-2 18 0 15 6 -7 11 -21 11 -57 -3z"/>
<path d="M2705 2860 c-3 -5 -1 -10 4 -10 6 0 11 5 11 10 0 6 -2 10 -4 10 -3 0
-8 -4 -11 -10z"/>
<path d="M3755 2850 c3 -5 8 -10 11 -10 2 0 4 5 4 10 0 6 -5 10 -11 10 -5 0
-7 -4 -4 -10z"/>
<path d="M3680 2840 c0 -5 5 -10 10 -10 6 0 10 5 10 10 0 6 -4 10 -10 10 -5 0
-10 -4 -10 -10z"/>
<path d="M4790 2836 c0 -9 5 -16 10 -16 6 0 10 4 10 9 0 6 -4 13 -10 16 -5 3
-10 -1 -10 -9z"/>
<path d="M3713 2815 c0 -18 4 -25 16 -23 11 2 16 -4 15 -19 0 -18 3 -20 22
-13 15 6 24 5 28 -3 3 -7 3 2 -1 18 -8 43 -11 45 -44 45 -18 0 -28 4 -24 10 3
6 2 10 -3 10 -5 0 -9 -11 -9 -25z"/>
<path d="M4195 2810 c-3 -5 -1 -10 4 -10 6 0 11 5 11 10 0 6 -2 10 -4 10 -3 0
-8 -4 -11 -10z"/>
<path d="M3570 2795 c0 -8 5 -15 10 -15 6 0 10 7 10 15 0 8 -4 15 -10 15 -5 0
-10 -7 -10 -15z"/>
<path d="M3648 2803 c7 -3 16 -2 19 1 4 3 -2 6 -13 5 -11 0 -14 -3 -6 -6z"/>
<path d="M2635 2790 c-3 -5 -1 -10 4 -10 6 0 11 5 11 10 0 6 -2 10 -4 10 -3 0
-8 -4 -11 -10z"/>
<path d="M3884 2785 c11 -8 25 -15 30 -15 6 0 2 7 -8 15 -11 8 -25 15 -30 15
-6 0 -2 -7 8 -15z"/>
<path d="M4050 2790 c0 -5 5 -10 10 -10 6 0 10 5 10 10 0 6 -4 10 -10 10 -5 0
-10 -4 -10 -10z"/>
<path d="M3610 2779 c0 -5 5 -7 10 -4 6 3 10 8 10 11 0 2 -4 4 -10 4 -5 0 -10
-5 -10 -11z"/>
<path d="M4893 2774 c-7 -7 -9 -15 -5 -17 4 -3 13 1 19 9 7 7 9 15 5 17 -4 3
-13 -1 -19 -9z"/>
<path d="M3524 2755 c-16 -12 -17 -14 -2 -15 25 0 49 11 42 21 -7 13 -17 11
-40 -6z"/>
<path d="M4305 2760 c-3 -5 -1 -10 4 -10 6 0 11 5 11 10 0 6 -2 10 -4 10 -3 0
-8 -4 -11 -10z"/>
<path d="M2585 2740 c3 -5 10 -10 16 -10 5 0 9 5 9 10 0 6 -7 10 -16 10 -8 0
-12 -4 -9 -10z"/>
<path d="M3588 2737 c-39 -15 -35 -25 8 -18 21 3 37 10 36 16 -1 14 -13 14
-44 2z"/>
<path d="M4080 2740 c-9 -6 -10 -10 -3 -10 6 0 15 5 18 10 8 12 4 12 -15 0z"/>
<path d="M3510 2725 c0 -15 18 -40 24 -34 3 3 -1 14 -9 25 -8 10 -14 15 -15 9z"/>
<path d="M3865 2719 c-4 -6 -5 -12 -2 -15 2 -3 7 2 10 11 7 17 1 20 -8 4z"/>
<path d="M4402 2709 c2 -7 10 -15 17 -17 8 -3 12 1 9 9 -2 7 -10 15 -17 17 -8
3 -12 -1 -9 -9z"/>
<path d="M3544 2682 c-8 -13 -8 -20 2 -29 10 -10 12 -7 12 17 -1 17 -2 30 -2
30 -1 0 -6 -8 -12 -18z"/>
<path d="M3630 2675 c13 -14 26 -22 29 -19 3 3 -2 11 -11 18 -10 7 -15 16 -11
19 3 4 -2 7 -12 7 -17 0 -16 -3 5 -25z"/>
<path d="M4047 2693 c-4 -3 -7 -11 -7 -17 0 -6 5 -5 12 2 6 6 9 14 7 17 -3 3
-9 2 -12 -2z"/>
<path d="M4960 2680 c-9 -6 -10 -10 -3 -10 6 0 15 5 18 10 8 12 4 12 -15 0z"/>
<path d="M3750 2654 c0 -8 5 -12 10 -9 6 4 8 11 5 16 -9 14 -15 11 -15 -7z"/>
<path d="M3686 2643 c-6 -14 -5 -15 5 -6 7 7 10 15 7 18 -3 3 -9 -2 -12 -12z"/>
<path d="M4451 2644 c0 -11 3 -14 6 -6 3 7 2 16 -1 19 -3 4 -6 -2 -5 -13z"/>
<path d="M2690 2641 c0 -5 5 -13 10 -16 6 -3 10 -2 10 4 0 5 -4 13 -10 16 -5
3 -10 2 -10 -4z"/>
<path d="M3521 2634 c0 -11 3 -14 6 -6 3 7 2 16 -1 19 -3 4 -6 -2 -5 -13z"/>
<path d="M3621 2614 c0 -11 3 -14 6 -6 3 7 2 16 -1 19 -3 4 -6 -2 -5 -13z"/>
<path d="M3503 2593 c-10 -16 -13 -16 -22 -3 -9 12 -11 11 -11 -7 0 -13 5 -23
10 -23 7 0 7 -6 0 -19 -13 -25 -13 -31 0 -31 6 0 10 9 10 20 0 26 60 65 72 47
5 -8 8 -7 8 4 0 31 -48 39 -67 12z"/>
<path d="M3731 2584 c0 -11 3 -14 6 -6 3 7 2 16 -1 19 -3 4 -6 -2 -5 -13z"/>
<path d="M3900 2589 c0 -5 5 -7 10 -4 6 3 10 8 10 11 0 2 -4 4 -10 4 -5 0 -10
-5 -10 -11z"/>
<path d="M4255 2590 c3 -5 8 -10 11 -10 2 0 4 5 4 10 0 6 -5 10 -11 10 -5 0
-7 -4 -4 -10z"/>
<path d="M4336 2583 c-6 -14 -5 -15 5 -6 7 7 10 15 7 18 -3 3 -9 -2 -12 -12z"/>
<path d="M4446 2588 c3 -5 10 -6 15 -3 13 9 11 12 -6 12 -8 0 -12 -4 -9 -9z"/>
<path d="M3084 2575 c-7 -17 4 -37 17 -30 5 4 9 -5 9 -18 0 -14 6 -27 14 -30
23 -9 27 5 9 25 -13 15 -14 21 -5 27 18 11 4 41 -19 41 -11 0 -22 -7 -25 -15z"/>
<path d="M3643 2569 c-1 -9 7 -19 18 -22 15 -4 19 0 19 18 0 28 -35 32 -37 4z"/>
<path d="M3810 2579 c0 -5 5 -7 10 -4 6 3 10 8 10 11 0 2 -4 4 -10 4 -5 0 -10
-5 -10 -11z"/>
<path d="M4840 2580 c0 -5 5 -10 10 -10 6 0 10 5 10 10 0 6 -4 10 -10 10 -5 0
-10 -4 -10 -10z"/>
<path d="M2310 2570 c0 -5 5 -10 10 -10 6 0 10 5 10 10 0 6 -4 10 -10 10 -5 0
-10 -4 -10 -10z"/>
<path d="M3045 2572 c-15 -10 -15 -72 0 -72 19 0 26 12 14 27 -9 9 -8 17 0 27
13 15 1 29 -14 18z"/>
<path d="M3571 2534 c6 -7 16 -11 21 -8 11 7 3 17 -18 20 -12 2 -13 -1 -3 -12z"/>
<path d="M4625 2540 c-3 -5 1 -10 9 -10 9 0 16 5 16 10 0 6 -4 10 -9 10 -6 0
-13 -4 -16 -10z"/>
<path d="M2395 2520 c3 -5 8 -10 11 -10 2 0 4 5 4 10 0 6 -5 10 -11 10 -5 0
-7 -4 -4 -10z"/>
<path d="M3000 2520 c0 -5 5 -10 10 -10 6 0 10 5 10 10 0 6 -4 10 -10 10 -5 0
-10 -4 -10 -10z"/>
<path d="M3510 2520 c0 -5 4 -10 9 -10 10 0 24 -39 21 -59 -1 -13 1 -13 14 -2
15 12 15 15 -1 26 -9 7 -14 19 -10 28 3 9 -1 18 -9 21 -21 8 -24 8 -24 -4z"/>
<path d="M2831 2504 c0 -11 3 -14 6 -6 3 7 2 16 -1 19 -3 4 -6 -2 -5 -13z"/>
<path d="M4607 2505 c-8 -19 13 -31 23 -14 9 14 4 29 -10 29 -4 0 -10 -7 -13
-15z"/>
<path d="M4735 2510 c-3 -5 -1 -10 4 -10 6 0 11 5 11 10 0 6 -2 10 -4 10 -3 0
-8 -4 -11 -10z"/>
<path d="M2939 2510 c0 -3 -2 -12 -4 -20 -3 -16 21 -45 28 -32 13 23 16 42 6
36 -6 -4 -15 0 -20 7 -5 8 -9 12 -10 9z"/>
<path d="M2995 2491 c-2 -2 3 -14 12 -28 13 -20 14 -26 4 -33 -9 -5 -10 -10
-2 -14 6 -4 11 -3 11 2 0 5 8 12 19 15 10 2 23 17 28 33 10 29 10 29 -29 29
-22 0 -41 -2 -43 -4z"/>
<path d="M2490 2480 c0 -5 5 -10 10 -10 6 0 10 5 10 10 0 6 -4 10 -10 10 -5 0
-10 -4 -10 -10z"/>
<path d="M3115 2461 c7 -23 -10 -38 -19 -16 -9 24 -26 17 -26 -11 0 -18 4 -24
13 -21 10 4 13 -2 10 -17 -8 -39 22 -39 43 -1 16 30 16 37 4 59 -16 30 -34 35
-25 7z"/>
<path d="M2982 2450 c0 -14 2 -19 5 -12 2 6 2 18 0 25 -3 6 -5 1 -5 -13z"/>
<path d="M3160 2448 c0 -13 -3 -33 -6 -46 -5 -18 -3 -21 10 -16 9 3 23 1 31
-6 11 -9 19 -7 37 10 22 22 22 22 1 11 -35 -18 -44 -14 -37 17 4 15 12 34 18
42 10 13 9 13 -6 1 -12 -9 -18 -10 -18 -2 0 6 -7 11 -15 11 -9 0 -15 -9 -15
-22z"/>
<path d="M3575 2452 c-13 -35 16 -37 35 -2 8 16 7 19 -10 17 -11 -1 -22 -7
-25 -15z"/>
<path d="M3920 2460 c-12 -7 -12 -12 -3 -21 10 -10 14 -9 19 5 8 22 2 27 -16
16z"/>
<path d="M3685 2450 c3 -5 8 -10 11 -10 2 0 4 5 4 10 0 6 -5 10 -11 10 -5 0
-7 -4 -4 -10z"/>
<path d="M2890 2425 c0 -14 4 -25 9 -25 4 0 6 11 3 25 -2 14 -6 25 -8 25 -2 0
-4 -11 -4 -25z"/>
<path d="M3264 2435 c-8 -20 5 -37 23 -31 8 3 23 1 34 -4 30 -17 23 6 -10 29
-35 25 -40 26 -47 6z"/>
<path d="M4205 2440 c3 -5 8 -10 11 -10 2 0 4 5 4 10 0 6 -5 10 -11 10 -5 0
-7 -4 -4 -10z"/>
<path d="M2665 2410 c-3 -5 -1 -10 4 -10 6 0 11 5 11 10 0 6 -2 10 -4 10 -3 0
-8 -4 -11 -10z"/>
<path d="M3670 2406 c0 -2 7 -7 16 -10 8 -3 12 -2 9 4 -6 10 -25 14 -25 6z"/>
<path d="M3738 2403 c7 -3 16 -2 19 1 4 3 -2 6 -13 5 -11 0 -14 -3 -6 -6z"/>
<path d="M3602 2384 c-7 -8 -8 -14 -3 -14 10 0 25 19 20 25 -2 1 -10 -3 -17
-11z"/>
<path d="M3497 2376 c-7 -19 11 -32 24 -19 6 6 5 14 -4 22 -12 9 -16 8 -20 -3z"/>
<path d="M1454 2370 c-37 -15 -62 -62 -68 -128 -3 -34 -10 -82 -15 -105 -6
-23 -13 -57 -16 -75 -6 -38 -78 -271 -134 -442 -22 -63 -53 -161 -70 -217 -17
-57 -33 -103 -36 -103 -5 0 -23 91 -30 155 -6 56 -20 115 -60 255 -39 135 -48
155 -85 170 -28 11 -34 11 -58 -7 -38 -27 -109 -175 -187 -388 -71 -193 -104
-266 -122 -272 -10 -4 -43 102 -62 202 -5 28 -25 114 -45 190 -32 130 -47 214
-60 342 -3 28 -8 57 -10 65 -3 7 -7 33 -10 58 -6 50 -51 101 -83 95 -10 -2
-21 -4 -25 -4 -3 -1 -21 -13 -38 -27 -30 -26 -31 -30 -29 -95 3 -85 21 -200
53 -331 13 -57 32 -137 41 -178 31 -140 87 -325 117 -386 44 -91 118 -154 179
-154 40 0 102 79 152 193 26 59 47 111 47 116 0 5 18 66 41 137 30 94 43 124
50 112 11 -19 35 -134 44 -202 8 -71 44 -241 60 -287 8 -22 26 -55 41 -74 29
-38 33 -63 35 -213 1 -76 5 -106 16 -117 40 -41 54 -7 67 172 5 65 13 88 44
137 33 54 67 154 108 326 19 80 50 192 68 250 19 58 51 159 71 225 21 66 42
131 47 144 11 29 26 106 34 176 4 28 12 66 19 86 23 71 2 199 -34 199 -5 0
-15 2 -23 4 -7 3 -23 1 -34 -4z"/>
<path d="M2990 2370 c0 -5 7 -7 15 -4 8 4 15 8 15 10 0 2 -7 4 -15 4 -8 0 -15
-4 -15 -10z"/>
<path d="M3282 2368 c-16 -16 -15 -38 1 -38 22 0 40 18 34 34 -8 19 -19 20
-35 4z"/>
<path d="M3450 2361 c0 -6 4 -13 10 -16 6 -3 7 1 4 9 -7 18 -14 21 -14 7z"/>
<path d="M2905 2342 c-7 -7 7 -32 19 -32 6 0 17 9 24 20 11 18 10 20 -14 18
-14 -2 -27 -4 -29 -6z"/>
<path d="M3020 2330 c0 -5 5 -10 11 -10 5 0 7 5 4 10 -3 6 -8 10 -11 10 -2 0
-4 -4 -4 -10z"/>
<path d="M3095 2330 c3 -5 10 -10 16 -10 5 0 9 5 9 10 0 6 -7 10 -16 10 -8 0
-12 -4 -9 -10z"/>
<path d="M3535 2330 c-3 -5 -1 -10 4 -10 6 0 11 5 11 10 0 6 -2 10 -4 10 -3 0
-8 -4 -11 -10z"/>
<path d="M2770 2296 c0 -17 14 -29 23 -20 8 8 -3 34 -14 34 -5 0 -9 -6 -9 -14z"/>
<path d="M3266 2294 c-9 -23 -7 -37 9 -58 29 -38 58 19 32 62 -11 17 -34 15
-41 -4z"/>
<path d="M3820 2289 c0 -5 5 -7 10 -4 6 3 10 8 10 11 0 2 -4 4 -10 4 -5 0 -10
-5 -10 -11z"/>
<path d="M2720 2270 c0 -5 5 -10 11 -10 5 0 7 5 4 10 -3 6 -8 10 -11 10 -2 0
-4 -4 -4 -10z"/>
<path d="M2960 2270 c0 -5 5 -10 10 -10 6 0 10 5 10 10 0 6 -4 10 -10 10 -5 0
-10 -4 -10 -10z"/>
<path d="M3605 2270 c3 -5 8 -10 11 -10 2 0 4 5 4 10 0 6 -5 10 -11 10 -5 0
-7 -4 -4 -10z"/>
<path d="M3190 2260 c-9 -6 -10 -10 -3 -10 6 0 15 5 18 10 8 12 4 12 -15 0z"/>
<path d="M4465 2250 c3 -5 8 -10 11 -10 2 0 4 5 4 10 0 6 -5 10 -11 10 -5 0
-7 -4 -4 -10z"/>
<path d="M2720 2239 c0 -5 5 -7 10 -4 6 3 10 8 10 11 0 2 -4 4 -10 4 -5 0 -10
-5 -10 -11z"/>
<path d="M2870 2240 c-9 -6 -10 -10 -3 -10 6 0 15 5 18 10 8 12 4 12 -15 0z"/>
<path d="M3568 2243 c-22 -6 -23 -17 -3 -33 14 -12 17 -8 14 16 0 4 5 11 13
15 14 9 5 10 -24 2z"/>
<path d="M3215 2210 c-3 -5 -2 -10 4 -10 5 0 13 5 16 10 3 6 2 10 -4 10 -5 0
-13 -4 -16 -10z"/>
<path d="M3490 2200 c0 -5 5 -10 11 -10 5 0 7 5 4 10 -3 6 -8 10 -11 10 -2 0
-4 -4 -4 -10z"/>
<path d="M4131 2179 c-17 -10 -31 -23 -31 -27 0 -5 -14 -27 -31 -48 -25 -31
-29 -44 -24 -69 4 -16 10 -111 15 -210 5 -99 11 -191 15 -205 3 -14 8 -50 10
-80 3 -30 7 -76 10 -101 8 -72 15 -178 19 -276 2 -50 7 -97 12 -104 5 -8 9
-88 10 -179 2 -259 23 -469 49 -490 16 -13 42 -3 47 18 3 10 6 78 7 153 2 159
8 242 20 286 13 46 78 121 120 139 21 9 106 85 212 192 216 216 232 244 233
392 1 146 -32 203 -204 351 -36 31 -81 70 -100 86 -19 17 -60 46 -90 65 -57
36 -170 83 -170 70 0 -4 -11 6 -25 21 -14 15 -29 27 -33 28 -4 0 -14 2 -24 4
-9 2 -30 -6 -47 -16z m256 -325 c121 -87 193 -172 231 -276 24 -65 22 -91 -12
-127 -127 -137 -200 -209 -225 -224 -17 -10 -31 -17 -32 -15 -2 8 -7 60 -13
125 -4 39 -9 82 -11 95 -2 13 -9 58 -15 101 -6 43 -13 88 -15 100 -2 12 -11
74 -21 138 -9 64 -14 123 -11 132 9 23 42 9 124 -49z"/>
<path d="M3832 2169 c2 -6 8 -10 13 -10 5 0 11 4 13 10 2 6 -4 11 -13 11 -9 0
-15 -5 -13 -11z"/>
<path d="M3156 2141 c-4 -7 -5 -15 -2 -18 9 -9 19 4 14 18 -4 11 -6 11 -12 0z"/>
<path d="M3315 2050 c-3 -5 -1 -10 4 -10 6 0 11 5 11 10 0 6 -2 10 -4 10 -3 0
-8 -4 -11 -10z"/>
<path d="M3160 1715 c0 -8 7 -15 15 -15 8 0 15 7 15 15 0 8 -7 15 -15 15 -8 0
-15 -7 -15 -15z"/>
<path d="M3560 1700 c0 -5 7 -10 16 -10 8 0 12 5 9 10 -3 6 -10 10 -16 10 -5
0 -9 -4 -9 -10z"/>
</g>
</svg>
